<?xml version="1.0" standalone="no"?>
<!DOCTYPE svg PUBLIC "-//W3C//DTD SVG 20010904//EN"
 "http://www.w3.org/TR/2001/REC-SVG-20010904/DTD/svg10.dtd">
<svg version="1.0" xmlns="http://www.w3.org/2000/svg"
 width="20pt" height="20pt" viewBox="0 0 512 512"
 preserveAspectRatio="xMidYMid meet">

<g transform="translate(0.000000,512.000000) scale(0.100000,-0.100000)"
fill="#ffff" stroke="none">
<path d="M2321 5110 c-1340 -130 -2361 -1283 -2318 -2620 13 -389 97 -726 268
-1069 249 -502 647 -900 1150 -1150 815 -406 1779 -350 2539 147 297 194 579
482 771 788 74 116 184 342 234 478 51 138 110 376 131 531 23 157 26 521 6
660 -43 299 -120 554 -246 810 -378 768 -1090 1285 -1941 1411 -122 18 -466
26 -594 14z m-115 -1015 c27 -8 101 -47 164 -86 199 -123 191 -122 321 -39 52
34 127 77 168 97 98 48 174 50 259 7 82 -42 116 -94 191 -291 217 -571 336
-860 361 -873 33 -18 79 -11 105 15 29 28 31 60 10 112 -8 19 -15 37 -15 39 0
6 133 -53 183 -81 66 -37 154 -120 180 -169 15 -30 21 -59 21 -106 0 -83 -23
-128 -102 -201 -165 -154 -523 -260 -1047 -311 -172 -16 -722 -16 -890 0 -528
53 -882 157 -1045 308 -81 76 -104 121 -104 204 0 131 94 231 302 324 35 15
66 25 69 23 3 -3 -3 -26 -12 -51 -10 -26 -15 -56 -11 -70 13 -53 100 -77 137
-39 10 10 110 249 223 532 113 283 216 530 229 550 31 47 95 91 155 107 63 17
89 17 148 -1z m-767 -2081 c10 -13 24 -51 31 -86 6 -35 14 -67 17 -71 3 -5 31
17 64 48 74 71 177 120 282 137 227 35 456 -94 548 -306 22 -51 26 -56 49 -50
97 23 166 23 260 -1 23 -5 27 -2 42 40 25 66 83 149 137 195 207 178 499 173
696 -12 43 -39 66 -55 69 -47 3 8 10 39 17 69 20 92 41 119 95 120 33 0 68
-27 79 -60 3 -11 -16 -122 -43 -248 -27 -125 -54 -258 -60 -295 -13 -85 -65
-196 -123 -261 -165 -186 -455 -226 -663 -92 -118 77 -219 226 -233 344 -5 49
-9 55 -44 73 -50 25 -150 25 -198 0 -31 -16 -36 -25 -48 -82 -38 -190 -198
-355 -383 -398 -68 -16 -199 -13 -261 5 -192 56 -339 217 -370 404 -6 36 -33
169 -60 295 -55 256 -55 275 2 299 40 17 75 10 98 -20z"/>
</g>
</svg>
