<?xml version="1.0" standalone="no"?>
<!DOCTYPE svg PUBLIC "-//W3C//DTD SVG 20010904//EN"
 "http://www.w3.org/TR/2001/REC-SVG-20010904/DTD/svg10.dtd">
<svg version="1.0" xmlns="http://www.w3.org/2000/svg"
 width="512.000000pt" height="512.000000pt" viewBox="0 0 512.000000 512.000000"
 preserveAspectRatio="xMidYMid meet">

<g transform="translate(0.000000,512.000000) scale(0.100000,-0.100000)"
fill="white" stroke="none">
<path d="M382 5103 c-18 -9 -43 -30 -55 -47 l-22 -31 -3 -2453 c-2 -2250 -1
-2457 14 -2488 9 -19 31 -44 48 -57 l31 -22 2165 0 2165 0 31 22 c70 50 64
-173 64 2533 0 2706 6 2483 -64 2533 l-31 22 -2155 2 c-1970 2 -2158 1 -2188
-14z m3816 -537 c15 -8 38 -26 52 -41 l25 -27 0 -1938 0 -1938 -25 -27 c-55
-59 60 -55 -1690 -55 -1750 0 -1635 -4 -1690 55 l-25 27 0 1938 c0 1924 0
1938 20 1960 11 13 34 31 50 41 29 18 90 19 1643 19 1366 0 1617 -2 1640 -14z"/>
<path d="M1140 2818 l0 -1461 30 61 c54 107 179 204 298 230 l42 10 0 -409 0
-409 150 0 150 0 0 134 0 133 52 -13 c37 -10 123 -14 290 -14 266 0 247 7 229
-75 -5 -22 -12 -68 -15 -103 l-7 -62 150 0 150 0 6 47 c60 458 362 829 799
979 58 20 207 54 237 54 5 0 22 -27 39 -59 l29 -59 -72 -18 c-434 -105 -781
-453 -880 -883 l-14 -61 152 0 152 0 23 68 c33 99 83 189 156 280 79 99 175
175 297 236 87 44 252 95 264 82 3 -3 34 -119 68 -258 l63 -253 1 1643 1 1642
-1420 0 -1420 0 0 -1462z m1508 1226 c97 -19 240 -88 312 -150 109 -93 183
-205 231 -349 23 -69 24 -78 29 -606 l5 -536 128 -108 128 -109 -102 -33
c-123 -40 -263 -107 -361 -174 l-73 -49 -6 722 c-6 801 -3 769 -74 913 -83
170 -252 302 -438 342 -117 24 -282 11 -391 -33 -39 -15 -3 18 71 66 163 107
350 143 541 104z m-264 -436 c101 -30 189 -109 228 -207 22 -54 23 -68 23
-386 0 -322 -1 -331 -22 -372 -48 -89 -98 -106 -289 -102 -130 4 -143 6 -197
33 -134 68 -197 189 -197 377 0 67 0 67 30 74 37 8 100 79 101 114 4 81 -22
131 -82 158 -39 17 -40 19 -34 56 16 108 115 215 235 253 47 16 153 17 204 2z
m-456 -1264 c30 -20 69 -42 88 -50 33 -14 34 -16 34 -73 l0 -59 -77 -32 c-43
-18 -97 -40 -120 -50 l-43 -19 0 186 0 186 33 -27 c17 -15 56 -43 85 -62z
m712 -400 l0 -325 -39 -57 c-21 -31 -53 -85 -70 -120 l-32 -63 -294 3 c-280 3
-295 4 -322 24 -63 46 -73 76 -73 204 0 111 1 119 23 132 12 8 117 54 233 102
139 57 220 97 237 114 34 36 47 90 47 195 l0 87 83 1 c45 0 102 6 127 13 88
26 80 57 80 -310z"/>
<path d="M2309 3311 c-127 -41 -149 -203 -37 -271 50 -30 182 -29 228 3 91 62
90 181 -2 250 -29 22 -144 33 -189 18z"/>
</g>
</svg>
