<?xml version="1.0" standalone="no"?>
<!DOCTYPE svg PUBLIC "-//W3C//DTD SVG 20010904//EN"
 "http://www.w3.org/TR/2001/REC-SVG-20010904/DTD/svg10.dtd">
<svg version="1.0" xmlns="http://www.w3.org/2000/svg"
 width="1000.000000pt" height="1000.000000pt" viewBox="0 0 1000.000000 1000.000000"
 preserveAspectRatio="xMidYMid meet">

<g transform="translate(0.000000,1000.000000) scale(0.100000,-0.100000)"
fill="#000000" stroke="none">
<path d="M8559 5503 c-309 -357 -563 -649 -564 -651 -2 -2 -30 -2 -64 0 l-61
3 289 335 c160 184 290 338 291 343 0 4 -217 7 -483 7 l-483 0 -79 -87 -79
-88 165 -7 c90 -4 181 -9 201 -10 l36 -3 -415 -475 -416 -475 574 -4 574 -3
194 -204 c174 -183 202 -209 275 -249 141 -76 200 -85 586 -85 182 0 330 2
330 5 0 10 -891 950 -922 973 -22 16 -45 22 -80 22 -27 0 -48 4 -46 9 2 7 198
233 1056 1218 l63 73 -190 0 -190 0 -562 -647z"/>
<path d="M516 6128 c5 -7 210 -234 456 -505 246 -270 448 -494 448 -498 0 -3
-144 -171 -319 -373 l-320 -367 797 -5 c590 -4 813 -2 858 7 70 13 166 59 238
112 36 27 488 539 595 674 13 16 -14 17 -500 17 l-514 0 -82 -93 -83 -92 215
-3 215 -2 -62 -85 -63 -84 -318 -1 c-175 0 -317 4 -315 8 2 4 98 117 213 251
116 134 210 249 210 255 0 7 -124 148 -275 314 l-275 302 -237 0 c-131 0 -238
-2 -238 -6 0 -3 105 -121 233 -262 127 -142 238 -265 246 -275 12 -15 10 -22
-10 -52 -13 -19 -26 -35 -29 -34 -3 0 -169 182 -370 404 l-365 403 -178 1
c-140 1 -177 -2 -171 -11z"/>
<path d="M4008 5448 l-83 -93 229 -3 c302 -3 332 5 449 117 31 30 57 59 57 63
0 4 -128 8 -284 8 l-285 0 -83 -92z"/>
<path d="M4751 5444 l-83 -96 253 4 c251 3 255 3 311 30 56 26 150 104 169
140 9 17 -5 18 -278 18 l-288 0 -84 -96z"/>
<path d="M5492 5444 l-84 -95 254 3 c248 3 254 3 308 29 52 24 180 131 180
150 0 5 -125 9 -287 8 l-288 0 -83 -95z"/>
<path d="M4568 5185 c-103 -28 -136 -58 -371 -326 -123 -142 -227 -265 -231
-274 -3 -9 -6 -36 -6 -60 0 -51 35 -100 87 -121 36 -15 457 -18 878 -5 311 9
290 -2 527 280 100 119 201 237 224 262 68 75 70 161 4 224 l-31 30 -517 2
c-404 1 -527 -1 -564 -12z m565 -192 c3 -5 -66 -94 -152 -200 l-156 -192 -148
0 -148 -1 18 23 c10 13 90 103 177 200 l160 177 122 0 c68 0 125 -3 127 -7z"/>
<path d="M3302 5097 l-83 -92 190 -3 c105 -1 191 -5 191 -8 0 -2 -133 -159
-296 -349 l-296 -343 -451 -5 c-391 -3 -460 -6 -511 -21 -123 -36 -163 -65
-312 -223 -76 -82 -150 -161 -163 -176 l-24 -27 814 0 814 1 565 640 c311 353
575 654 588 670 l23 29 -483 -1 -483 -1 -83 -91z"/>
<path d="M6078 5171 c-26 -10 -60 -29 -76 -42 -16 -13 -159 -170 -317 -349
-159 -179 -302 -340 -318 -357 l-31 -33 290 0 289 1 242 277 c134 152 254 289
268 305 25 27 27 27 150 27 68 0 126 -3 129 -8 2 -4 -22 -38 -55 -74 l-60 -67
281 -3 c155 -2 285 -1 289 2 3 3 73 80 154 173 l148 167 -668 0 c-623 -1 -671
-2 -715 -19z"/>
</g>
</svg>
