<?xml version="1.0" standalone="no"?>
<!DOCTYPE svg PUBLIC "-//W3C//DTD SVG 20010904//EN"
 "http://www.w3.org/TR/2001/REC-SVG-20010904/DTD/svg10.dtd">
<svg version="1.0" xmlns="http://www.w3.org/2000/svg"
 width="512.000000pt" height="512.000000pt" viewBox="0 0 512.000000 512.000000"
 preserveAspectRatio="xMidYMid meet">

<g transform="translate(0.000000,512.000000) scale(0.100000,-0.100000)"
fill="white" stroke="none">
<path d="M655 4559 c-153 -20 -267 -97 -349 -233 -70 -116 -67 -46 -64 -1571
3 -1536 -3 -1408 78 -1533 l40 -62 -121 0 c-131 0 -167 -10 -209 -55 -24 -26
-25 -32 -25 -158 0 -122 2 -136 27 -189 51 -109 148 -181 270 -199 83 -12
4433 -12 4516 0 120 18 220 91 270 199 22 49 27 74 30 177 4 113 3 122 -20
155 -39 58 -75 70 -215 70 l-123 0 40 62 c70 107 73 128 78 444 l3 282 49 4
c65 7 119 37 155 87 l30 43 3 179 3 179 -25 25 c-31 31 -78 33 -106 5 -18 -18
-20 -33 -20 -171 0 -84 -5 -159 -10 -170 -11 -19 -39 -19 -1624 -19 -1462 0
-1614 1 -1620 16 -3 9 -6 47 -6 85 l0 69 43 0 c70 0 77 15 77 158 l0 122 80 0
80 0 0 -123 c0 -143 7 -157 78 -157 73 0 72 -6 72 325 0 292 0 294 -22 309
-31 22 -84 20 -108 -4 -18 -18 -20 -33 -20 -130 l0 -110 -80 0 -80 0 0 110 c0
98 -2 112 -21 131 -16 16 -30 20 -60 17 l-39 -4 0 77 c0 43 3 84 6 93 6 15
157 16 1615 16 l1608 0 15 -22 c13 -18 16 -55 16 -190 0 -155 2 -170 20 -188
28 -28 75 -26 105 5 25 24 25 26 25 205 0 193 -7 229 -53 278 -34 37 -92 62
-142 62 l-45 0 0 436 c0 488 -4 527 -66 631 -65 107 -150 177 -267 216 -61 21
-75 22 -927 25 -600 2 -876 0 -902 -8 -25 -7 -40 -19 -50 -40 l-13 -30 -95 0
-95 0 -13 29 c-8 18 -25 34 -44 40 -37 13 -1658 13 -1753 0z m355 -614 l0
-105 -125 0 -125 0 0 105 0 105 125 0 125 0 0 -105z m3350 0 l0 -105 -1600 0
-1600 0 0 105 0 105 1600 0 1600 0 0 -105z m0 -475 l0 -210 -1499 0 c-1035 0
-1508 -3 -1528 -11 -38 -14 -81 -56 -104 -101 -18 -35 -19 -65 -19 -540 0
-466 2 -506 19 -543 22 -50 69 -91 119 -105 25 -6 532 -10 1525 -10 l1487 0 0
-215 0 -215 -1800 0 -1800 0 0 1080 0 1080 1800 0 1800 0 0 -210z m-2598
-2509 c6 -61 39 -115 91 -149 l41 -27 665 0 666 0 38 24 c53 32 89 90 95 151
l5 50 803 0 804 0 0 -70 c0 -79 -17 -130 -58 -173 -58 -61 124 -57 -2346 -57
-1576 0 -2273 3 -2293 11 -77 29 -122 109 -123 217 l0 72 804 0 803 0 5 -49z
m1448 27 c0 -12 -7 -30 -17 -40 -15 -17 -48 -18 -631 -18 -559 0 -617 2 -634
17 -10 9 -18 27 -18 40 l0 23 650 0 650 0 0 -22z"/>
<path d="M2371 2913 c-15 -13 -45 -96 -107 -302 l-87 -285 28 -23 c21 -19 37
-23 69 -21 l41 3 19 63 20 63 89 -3 90 -3 14 -50 c19 -66 28 -75 72 -75 45 0
81 24 81 53 -1 44 -169 569 -187 583 -27 20 -116 18 -142 -3z m129 -380 c0 -2
-25 -3 -55 -3 -59 0 -62 4 -46 56 5 16 17 56 27 89 l17 60 28 -100 c16 -55 29
-101 29 -102z"/>
<path d="M2866 2915 c-51 -18 -101 -67 -115 -114 -15 -51 -15 -352 1 -403 15
-49 74 -103 130 -119 86 -23 201 5 255 63 48 51 59 145 21 172 -51 36 -128 6
-128 -49 0 -57 -74 -85 -121 -46 -23 19 -24 23 -24 181 0 158 1 162 24 181 45
36 121 13 121 -37 0 -37 33 -64 78 -64 67 0 91 56 58 134 -39 94 -184 143
-300 101z"/>
<path d="M3262 2914 c-22 -15 -22 -17 -22 -309 0 -332 -2 -325 74 -325 64 0
76 19 76 121 1 56 5 90 15 102 12 17 20 9 94 -102 57 -84 89 -123 105 -127 32
-8 77 15 93 46 14 29 5 47 -109 217 -37 56 -68 105 -68 108 0 3 30 43 66 88
88 108 93 120 67 155 -22 30 -62 48 -85 39 -8 -3 -51 -56 -94 -118 l-79 -112
-3 99 c-2 86 -5 101 -23 117 -26 21 -77 22 -107 1z"/>
<path d="M3762 2914 c-22 -15 -22 -17 -22 -313 0 -218 3 -300 12 -309 17 -17
379 -17 396 0 16 16 16 80 0 96 -8 8 -53 12 -135 12 l-123 0 0 75 0 75 75 0
c79 0 95 10 95 59 0 37 -27 51 -101 51 l-69 0 0 70 0 70 125 0 c113 0 125 2
135 19 14 27 13 84 -2 99 -8 8 -64 12 -188 12 -143 0 -180 -3 -198 -16z"/>
<path d="M4238 2919 c-17 -9 -18 -35 -18 -312 0 -222 3 -306 12 -315 19 -19
259 -16 306 4 55 22 91 62 107 118 18 60 20 290 4 367 -14 66 -67 121 -132
137 -56 15 -255 15 -279 1z m251 -145 c19 -24 21 -40 21 -174 0 -179 -4 -188
-92 -197 l-58 -6 0 202 0 201 54 0 c47 0 57 -4 75 -26z"/>
</g>
</svg>
