<?xml version="1.0" standalone="no"?>
<!DOCTYPE svg PUBLIC "-//W3C//DTD SVG 20010904//EN"
 "http://www.w3.org/TR/2001/REC-SVG-20010904/DTD/svg10.dtd">
<svg version="1.0" xmlns="http://www.w3.org/2000/svg"
 width="626.000000pt" height="512.000000pt" viewBox="0 0 626.000000 512.000000"
 preserveAspectRatio="xMidYMid meet">

<g transform="translate(0.000000,512.000000) scale(0.100000,-0.100000)"
fill="#000000" stroke="none">
<path d="M81 5098 c7 -13 90 -155 186 -316 95 -161 173 -296 173 -301 0 -4
-21 -16 -47 -26 -58 -22 -20 -69 -273 338 -63 101 -117 180 -118 176 -4 -10 2
-19 196 -331 74 -120 141 -218 149 -218 8 0 31 9 53 20 51 26 57 25 75 -10 19
-37 17 -41 -41 -80 -36 -26 -44 -37 -44 -63 l-1 -32 -24 30 c-13 16 -100 141
-192 278 -92 137 -169 244 -171 238 -2 -6 48 -86 111 -178 63 -92 149 -219
191 -282 l77 -114 -7 -112 -7 -112 -74 -37 c-42 -20 -77 -36 -78 -34 -2 2 -29
55 -60 118 -56 112 -57 116 -46 158 11 42 10 45 -49 155 -33 62 -60 105 -60
96 0 -9 21 -56 46 -103 25 -48 45 -89 43 -90 -2 -2 -23 -13 -47 -25 -23 -12
-42 -26 -42 -31 0 -6 23 1 50 15 54 27 56 25 39 -24 -12 -35 -18 -21 83 -223
l28 -58 -100 -50 c-93 -47 -100 -52 -100 -80 l0 -30 147 73 c82 40 164 81 183
90 l35 16 9 -39 c5 -21 6 -45 3 -52 -2 -8 -30 -22 -62 -32 -44 -14 -78 -36
-149 -97 -85 -75 -93 -80 -129 -75 l-37 4 2 -44 c1 -31 4 -42 12 -34 15 15 27
14 214 -31 161 -39 175 -44 217 -81 l45 -40 -27 -49 c-55 -102 -83 -124 -277
-221 -196 -98 -192 -95 -184 -104 3 -3 51 18 107 45 100 51 101 51 196 51 52
0 95 -2 95 -5 0 -3 -7 -36 -17 -72 l-16 -66 -151 7 -151 7 -20 -58 c-12 -32
-26 -57 -33 -55 -7 1 -12 -2 -12 -8 0 -5 10 -10 23 -10 12 -1 121 -5 241 -10
l220 -9 43 29 c40 27 83 39 83 24 0 -22 -55 -176 -64 -180 -6 -2 -123 -20
-261 -39 -137 -20 -258 -38 -268 -41 -13 -4 -17 -16 -17 -50 l0 -45 33 6 c131
23 187 31 192 27 12 -12 5 -100 -9 -105 -8 -3 -59 -11 -115 -18 -56 -7 -101
-16 -101 -21 0 -11 7 -10 125 7 55 7 102 11 105 9 6 -6 28 -256 24 -265 -2 -3
-52 -11 -111 -18 -112 -13 -177 -29 -118 -30 17 0 75 6 130 13 55 7 101 13
102 12 1 -1 5 -44 8 -97 l7 -95 -88 -24 c-182 -47 -184 -48 -184 -77 0 -28 -7
-27 89 -7 l29 6 -59 -188 c-33 -104 -58 -198 -57 -209 2 -11 19 31 37 93 19
61 40 112 45 112 6 -1 23 -6 37 -13 l27 -12 -25 -85 c-13 -47 -31 -108 -39
-137 -13 -47 -17 -52 -47 -55 -27 -2 -33 -8 -35 -30 -4 -33 -21 -32 202 -13
94 8 172 12 174 10 5 -5 -23 -73 -98 -232 l-52 -112 -111 40 c-124 44 -117 42
-117 30 0 -5 50 -26 110 -46 61 -20 109 -40 107 -43 -2 -4 -30 -64 -62 -134
l-58 -127 -26 13 c-40 21 -71 28 -71 18 0 -5 21 -17 46 -27 25 -10 43 -22 41
-29 -47 -112 -51 -117 -69 -113 -20 6 -25 -9 -6 -15 10 -4 10 -13 0 -45 -7
-22 -12 -91 -12 -154 0 -94 2 -110 13 -95 12 16 18 15 97 -14 106 -39 200 -81
200 -89 0 -6 -31 -117 -45 -160 -5 -18 -2 -21 23 -21 28 0 30 3 56 96 25 85
26 98 13 117 -13 20 -11 26 41 88 l54 67 118 -76 c65 -43 128 -84 141 -93 l23
-16 -48 -84 c-27 -46 -51 -87 -53 -91 -2 -5 0 -8 5 -8 6 0 46 62 89 138 l79
139 28 364 c16 200 30 366 32 368 1 1 8 0 14 -4 15 -9 150 -178 150 -187 0 -5
-31 -28 -70 -53 -61 -39 -70 -49 -70 -75 0 -37 5 -39 160 -76 93 -21 119 -32
137 -53 12 -14 22 -29 23 -33 0 -4 -43 -36 -95 -70 l-94 -62 -81 -182 c-96
-219 -94 -214 -83 -214 4 0 46 87 93 193 l84 193 89 58 c49 31 94 59 100 61 7
3 27 -8 46 -24 l34 -28 -118 -199 c-65 -110 -124 -210 -132 -222 -8 -13 -12
-26 -9 -30 8 -7 -6 -28 145 227 96 161 136 220 144 212 8 -8 7 -63 -1 -198
-15 -235 -15 -243 2 -243 13 0 26 102 26 213 0 31 4 47 13 46 22 0 326 -75
332 -81 5 -5 -15 -108 -31 -161 -3 -9 -1 -17 4 -17 6 0 17 33 27 73 26 109 26
109 41 103 8 -3 76 -20 152 -36 75 -17 145 -34 155 -36 13 -4 17 -16 17 -55
l0 -49 44 0 c38 0 45 3 48 22 2 16 12 24 38 30 112 24 241 47 280 50 l45 3 3
-52 c3 -49 5 -53 28 -53 22 0 24 4 24 45 0 25 3 45 6 45 9 0 89 -57 103 -74 8
-9 25 -16 40 -16 25 1 24 2 -19 41 -25 22 -64 51 -86 65 -33 19 -41 29 -37 45
3 11 12 23 20 26 14 5 211 -22 220 -30 2 -3 -12 -37 -31 -76 -20 -39 -32 -71
-26 -71 5 0 15 10 21 22 6 13 13 24 14 26 1 1 22 -9 46 -23 24 -13 51 -25 59
-25 8 0 -9 14 -37 31 -29 17 -53 35 -53 39 0 8 19 58 26 69 2 2 190 -95 203
-105 2 -2 -2 -10 -9 -19 -16 -19 -2 -20 20 0 15 14 25 14 89 0 40 -8 90 -15
111 -15 37 0 41 3 65 50 30 59 44 57 85 -9 22 -36 40 -52 40 -35 0 12 -61 94
-77 103 -16 9 -16 12 -1 44 l16 34 215 -37 215 -37 13 24 c19 35 43 25 47 -19
2 -27 12 -44 33 -63 28 -23 38 -25 135 -25 86 0 104 -3 104 -15 0 -8 5 -15 10
-15 6 0 10 6 10 14 0 16 21 26 58 26 14 0 55 18 91 39 44 26 82 41 114 44 l49
5 18 -41 c14 -30 16 -46 8 -60 -11 -21 -1 -38 11 -18 6 9 11 10 15 2 4 -6 29
-11 57 -11 l49 0 -26 51 c-14 28 -23 53 -21 56 8 7 227 -66 268 -89 20 -11 42
-19 49 -16 7 2 -9 15 -34 28 -26 13 -49 28 -52 32 -4 6 66 158 81 176 1 1 55
-22 119 -52 131 -62 125 -50 69 -138 -25 -40 -27 -48 -15 -48 4 0 19 21 34 48
15 26 31 53 36 60 6 9 29 3 98 -29 49 -22 91 -43 93 -45 2 -2 -2 -10 -9 -19
-15 -18 0 -21 18 -3 9 9 18 9 37 0 44 -20 63 -13 23 9 -21 11 -38 21 -38 23 0
7 101 180 110 190 6 6 161 -67 188 -90 2 -1 -12 -31 -32 -67 -38 -67 -41 -77
-28 -77 5 0 19 21 31 48 43 91 40 90 118 47 92 -51 96 -55 82 -72 -7 -7 -9
-16 -5 -20 3 -4 12 2 19 11 13 17 15 17 46 2 21 -11 50 -16 83 -14 l51 3 -252
139 c-139 76 -261 146 -272 155 -11 9 -28 50 -40 96 -30 113 -31 108 24 116
l49 8 341 -196 c188 -107 346 -199 352 -204 11 -11 25 -12 25 -1 0 5 -18 18
-40 31 -22 12 -40 28 -40 34 0 7 18 43 40 81 22 37 40 73 40 80 -1 15 -27 -20
-55 -74 -47 -90 -43 -89 -118 -45 -36 21 -65 41 -63 44 1 3 33 59 71 124 75
131 60 123 138 72 15 -9 27 -13 27 -7 0 5 -18 21 -40 36 -22 14 -40 31 -40 36
0 6 18 40 40 76 34 57 40 74 40 124 l0 58 -256 193 c-140 106 -258 197 -261
201 -2 5 6 26 19 46 37 56 50 82 40 82 -5 0 -25 -25 -43 -55 -20 -33 -39 -53
-46 -50 -21 7 -523 388 -523 396 0 4 15 30 34 57 19 28 58 100 87 159 28 59
53 109 54 111 2 2 79 -49 171 -112 164 -112 172 -120 284 -253 190 -226 212
-247 403 -362 l37 -23 0 34 c0 30 -6 37 -73 77 -39 25 -89 58 -111 74 -39 31
-276 302 -276 317 0 4 6 13 13 19 11 8 31 -2 88 -45 84 -63 109 -78 109 -66 0
7 -131 107 -178 135 -8 6 -20 3 -32 -8 -18 -16 -40 -13 -40 6 0 11 70 104 79
104 3 0 67 -47 143 -104 l136 -103 -24 -52 c-29 -61 -29 -68 -6 -82 70 -42
172 -94 172 -87 0 5 -38 31 -85 57 -47 26 -85 50 -85 55 0 4 38 90 85 191 47
101 85 191 85 199 -1 11 -4 10 -13 -6 -13 -24 -4 -29 -238 124 l-56 37 22 48
c13 27 25 51 27 53 2 3 60 -47 128 -110 68 -63 126 -112 129 -109 6 6 -54 64
-188 186 -56 50 -61 59 -51 77 19 36 49 24 143 -59 50 -44 93 -77 96 -74 6 6
-17 28 -119 117 l-55 47 50 49 50 49 35 -31 c30 -27 35 -28 38 -13 2 10 -6 29
-19 42 l-22 24 22 24 22 23 -37 37 -37 37 6 82 c9 111 14 125 46 130 20 3 17
4 -11 6 -41 1 -45 11 -32 81 6 29 10 31 35 26 28 -5 29 -5 29 39 0 39 -3 45
-25 51 -25 6 -25 9 -20 63 7 68 3 76 -125 219 l-92 103 53 57 c30 31 60 64 69
72 8 9 33 34 54 57 l39 42 -42 96 c-22 53 -41 100 -41 104 0 4 29 20 65 36 59
25 65 30 65 56 0 33 -1 34 -39 15 -71 -37 -257 -106 -301 -112 l-48 -6 -21 67
c-23 74 -24 71 31 130 l27 30 -59 180 c-71 211 -103 316 -98 320 2 1 45 12 96
23 l93 20 21 -44 c34 -73 45 -72 120 4 86 88 178 200 178 215 -1 7 -20 -10
-43 -38 -98 -116 -199 -225 -208 -225 -5 0 -19 21 -30 47 l-20 47 43 45 c24
25 80 84 125 131 l82 85 25 -24 26 -24 0 67 0 68 -54 56 c-131 138 -139 149
-111 172 14 12 20 8 153 -93 7 -6 12 -6 12 0 0 8 -92 87 -134 115 -7 4 -2 16
14 32 16 18 19 26 9 26 -8 0 -29 -21 -48 -45 -18 -25 -37 -45 -41 -45 -5 0
-26 20 -48 45 -39 44 -40 45 -103 45 l-63 0 37 -38 37 -38 -31 -37 c-17 -20
-35 -37 -40 -37 -5 0 -50 34 -99 76 -50 41 -95 74 -100 72 -6 -2 35 -41 90
-87 l101 -84 -32 -33 c-19 -19 -38 -33 -44 -30 -16 6 -245 173 -283 207 -28
23 -43 29 -82 29 l-48 0 -57 -81 c-54 -77 -57 -80 -78 -66 -12 7 -63 38 -114
67 -50 29 -89 58 -87 64 3 8 -11 12 -38 13 -37 1 -40 0 -20 -9 12 -6 22 -15
22 -21 0 -5 -28 -58 -62 -118 l-62 -108 -30 18 c-17 10 -63 37 -103 60 -69 41
-72 44 -61 69 5 15 16 46 23 70 l13 42 -28 0 c-24 0 -30 -6 -41 -37 -25 -78
-22 -78 -102 -18 -39 30 -79 54 -87 54 -11 0 -10 -4 5 -14 66 -46 67 -33 -5
-138 l-65 -95 -35 19 c-19 11 -46 28 -60 39 l-25 19 51 73 c64 92 67 98 56 98
-7 0 -61 -73 -113 -153 -7 -10 -79 28 -79 41 1 4 16 29 35 57 19 27 32 52 29
55 -7 7 -32 -27 -115 -157 -39 -62 -74 -113 -78 -113 -26 1 -34 22 -32 89 1
40 -1 96 -4 126 -7 50 -9 55 -33 55 l-25 0 7 -104 c4 -58 3 -107 -1 -109 -5
-3 -37 12 -73 32 -36 21 -108 61 -160 91 -52 29 -97 55 -99 56 -2 2 2 10 9 19
7 9 8 15 2 15 -6 0 -12 -6 -14 -12 -4 -10 -10 -10 -32 0 -40 18 -67 15 -31 -4
16 -8 31 -17 33 -19 5 -5 -56 -113 -68 -120 -5 -3 -39 13 -74 36 l-66 42 20
32 c24 39 25 45 6 45 -8 0 -23 -13 -33 -30 -9 -16 -25 -30 -34 -30 -11 0 -20
11 -24 30 -4 17 -11 30 -16 30 -5 0 -7 -11 -3 -25 5 -22 3 -25 -19 -25 -14 0
-32 -3 -40 -6 -11 -4 -17 4 -22 25 -4 17 -10 31 -15 31 -4 0 -4 -17 0 -37 10
-41 -3 -78 -23 -67 -7 4 -45 30 -85 56 -40 27 -78 48 -84 46 -6 -2 31 -31 81
-63 50 -33 91 -62 91 -66 0 -3 -64 -26 -142 -51 -79 -26 -151 -50 -160 -53
-19 -7 -26 13 -55 153 -17 79 -19 82 -45 82 -31 0 -31 3 3 -148 22 -99 23
-105 7 -100 -7 3 -17 29 -23 58 -9 48 -13 55 -41 62 -20 5 -37 20 -52 47 -27
48 -27 55 1 69 20 9 17 11 -20 11 -24 1 -43 -3 -43 -8 0 -5 -41 -25 -92 -45
l-92 -35 -34 27 c-18 15 -44 36 -58 46 -13 11 -26 17 -29 14 -6 -5 52 -57 178
-158 31 -25 56 -49 57 -53 0 -11 -62 -87 -71 -87 -5 0 -34 12 -66 26 -253 116
-341 157 -361 170 l-23 15 37 44 c32 40 34 45 16 45 -11 0 -34 -16 -50 -35
l-31 -34 -50 34 c-31 21 -63 35 -81 35 l-30 0 56 -75 c53 -71 56 -77 50 -117
-5 -33 -1 -58 18 -106 14 -35 23 -69 20 -76 -4 -11 -66 -26 -110 -26 -7 0 -42
45 -78 100 -36 55 -96 145 -132 200 -36 55 -69 100 -74 100 -5 0 32 -63 82
-140 50 -77 89 -142 87 -144 -2 -1 -33 -20 -69 -42 -36 -21 -80 -49 -99 -61
-19 -13 -37 -23 -40 -23 -4 0 -74 92 -156 205 -143 195 -152 205 -183 205 -39
0 -43 9 61 -133 44 -59 78 -110 76 -111 -12 -12 -450 -258 -453 -255 -1 2 -40
74 -86 159 -79 146 -217 340 -242 340 -12 0 -13 1 73 -105 57 -70 116 -171
302 -515 16 -30 42 -78 58 -106 16 -28 29 -56 29 -61 0 -15 -119 -68 -129 -57
-9 9 -165 281 -380 662 -57 100 -107 182 -112 182 -11 0 -9 -5 91 -180 72
-126 227 -398 334 -587 25 -45 46 -87 46 -93 0 -13 -219 -120 -225 -111 -22
36 -87 202 -87 222 1 17 -78 159 -212 385 -205 345 -215 359 -245 362 -31 3
-32 2 -20 -20z m1887 -75 c-10 -13 -16 -10 -40 19 -38 46 -35 53 12 22 33 -22
38 -29 28 -41z m683 21 c18 -38 19 -48 8 -55 -8 -5 -19 -9 -26 -9 -7 0 -27
-13 -45 -29 l-34 -29 -51 41 c-29 23 -51 46 -49 52 2 8 145 71 168 74 3 1 16
-20 29 -45z m2871 -7 c65 -46 66 -35 -14 -154 l-48 -72 -65 45 c-35 25 -67 49
-70 54 -5 8 22 52 92 148 15 19 29 30 36 25 7 -3 38 -25 69 -46z m-362 -50
c36 -22 66 -40 67 -41 2 -2 -132 -204 -141 -213 -5 -5 -211 118 -209 125 1 4
29 56 63 115 l62 107 46 -27 c26 -15 76 -45 112 -66z m-1462 35 c10 -7 5 -22
-23 -70 -20 -34 -40 -62 -45 -62 -13 0 -90 53 -90 62 0 5 16 34 35 64 l35 54
38 -19 c20 -11 43 -24 50 -29z m-358 21 c0 -9 -50 -93 -56 -93 -10 0 -74 46
-74 53 0 5 5 17 10 28 9 15 22 19 65 19 30 0 55 -3 55 -7z m1218 -20 c20 -15
38 -28 39 -28 7 -4 -30 -95 -38 -95 -7 0 -92 37 -108 47 -4 3 61 102 67 103 2
0 20 -12 40 -27z m-1061 -80 c5 -12 -44 -103 -55 -103 -5 0 -117 65 -131 76
-2 2 11 28 29 58 l33 54 60 -36 c32 -21 61 -42 64 -49z m2482 35 l23 -27 -62
-75 -62 -76 -38 28 c-37 26 -38 28 -21 47 10 11 42 48 71 83 29 34 56 59 59
55 4 -5 17 -20 30 -35z m-3896 -2 c40 -19 133 -62 207 -95 74 -33 136 -64 138
-69 1 -4 -50 -16 -115 -26 -64 -9 -129 -20 -144 -23 -24 -5 -34 4 -101 93 -93
124 -92 122 -78 139 16 19 10 20 93 -19z m1695 2 c23 -13 40 -28 38 -34 -2 -6
-20 -36 -41 -68 l-36 -57 -42 26 c-23 14 -41 31 -39 38 6 21 63 117 70 117 4
0 26 -10 50 -22z m455 -35 c39 -26 74 -49 76 -50 7 -5 -94 -133 -106 -133 -9
0 -130 64 -141 75 -3 3 90 154 96 155 1 0 35 -21 75 -47z m-1495 20 c16 -30
23 -91 13 -98 -6 -3 -32 -8 -58 -11 -43 -5 -52 -2 -82 23 -41 35 -38 54 16 82
48 26 99 27 111 4z m2943 -40 c43 -32 79 -60 79 -63 0 -3 -13 -20 -29 -39
l-29 -35 -28 19 c-16 10 -53 36 -81 57 l-53 39 26 39 c15 22 29 40 31 40 2 0
40 -26 84 -57z m-2444 15 c18 -13 33 -26 33 -29 0 -7 -170 -315 -197 -357 -14
-23 -15 -22 -79 77 -66 104 -126 212 -120 218 3 3 314 110 325 112 3 1 20 -9
38 -21z m1571 -65 c39 -20 40 -31 6 -89 l-26 -44 -41 26 c-23 14 -64 35 -90
47 -54 24 -56 33 -23 112 l16 36 62 -36 c35 -20 78 -43 96 -52z m-2773 -26
c37 -49 65 -90 63 -92 -2 -2 -27 -7 -56 -11 -48 -6 -52 -5 -52 14 0 11 -9 41
-20 67 -20 47 -27 119 -11 113 5 -1 39 -43 76 -91z m1861 62 l53 -30 -18 -50
c-23 -60 -108 -199 -127 -206 -13 -5 -123 56 -124 68 0 3 26 46 58 95 32 49
67 104 77 122 11 17 21 32 23 32 3 0 29 -14 58 -31z m2275 -173 c-19 -19 -20
-18 -87 40 -130 113 -124 102 -85 148 15 18 20 14 103 -75 87 -92 88 -94 69
-113z m-2594 164 c24 -14 43 -29 43 -33 0 -10 -49 -107 -55 -107 -6 0 -105 62
-105 66 0 11 63 104 69 102 3 -2 25 -14 48 -28z m928 6 c30 -14 55 -27 55 -29
0 -17 -34 -97 -41 -97 -6 0 -37 18 -70 41 -39 26 -57 44 -52 52 28 43 39 57
45 57 4 0 32 -11 63 -24z m-1138 -43 c52 -32 63 -43 63 -65 0 -31 -20 -181
-25 -187 -4 -4 -207 78 -218 88 -10 10 95 201 110 201 4 0 35 -17 70 -37z
m-775 6 c36 -26 28 -35 -42 -44 -60 -8 -59 -10 -11 48 18 21 17 21 53 -4z
m2793 -26 c35 -25 62 -51 58 -57 -19 -35 -69 -106 -75 -106 -10 0 -127 81
-134 92 -7 11 62 118 76 118 5 0 39 -21 75 -47z m-958 -28 c102 -66 100 -61
61 -143 -11 -24 -27 -46 -34 -49 -7 -3 -63 23 -123 57 -96 55 -109 65 -98 79
59 81 92 121 97 119 3 -2 47 -30 97 -63z m1189 8 c35 -26 64 -50 64 -55 0 -4
-13 -22 -29 -40 l-29 -33 -71 49 c-39 27 -71 54 -71 60 0 21 45 76 59 71 8 -3
42 -26 77 -52z m-4200 -45 c33 -46 77 -106 98 -135 l37 -52 -180 -91 c-100
-49 -184 -90 -188 -90 -14 0 -156 261 -147 269 12 12 307 181 314 181 4 0 33
-37 66 -82z m2293 -8 c-44 -77 -43 -76 -89 -46 -39 26 -41 29 -27 49 8 12 21
36 31 54 l16 32 45 -26 44 -27 -20 -36z m2338 18 c44 -40 81 -77 82 -81 1 -4
-8 -21 -21 -37 l-23 -29 -95 71 c-52 39 -97 72 -99 74 -6 5 53 72 65 73 6 1
46 -32 91 -71z m-2028 49 c8 -10 2 -21 -25 -48 l-35 -34 17 40 c25 62 25 62
43 42z m979 -76 c39 -23 72 -44 72 -48 0 -4 -112 -175 -126 -192 -4 -5 -194
109 -194 116 0 2 25 49 56 104 l57 99 31 -19 c17 -10 64 -37 104 -60z m832 51
l34 -29 -23 -36 c-12 -21 -26 -37 -29 -37 -10 0 -82 50 -82 56 0 8 53 72 60
73 3 1 21 -12 40 -27z m-4026 -49 c32 -52 34 -58 19 -65 -35 -13 -48 -7 -75
38 -33 53 -34 60 -10 73 26 16 28 15 66 -46z m1054 -15 c22 -40 65 -111 95
-158 30 -47 53 -87 51 -89 -4 -4 -238 -41 -240 -38 -6 7 -104 321 -101 323 4
4 124 31 144 33 6 1 29 -32 51 -71z m1262 35 c38 -21 70 -42 70 -46 0 -11
-103 -146 -112 -146 -5 -1 -99 60 -147 95 -3 3 110 134 116 134 2 0 35 -17 73
-37z m-550 -48 c41 -27 77 -50 79 -51 8 -7 -50 -84 -62 -84 -7 0 -45 16 -85
35 -63 30 -72 37 -68 57 3 13 8 45 11 71 6 47 7 48 28 34 12 -8 56 -36 97 -62z
m1143 31 c32 -20 57 -41 57 -47 0 -16 -33 -69 -42 -69 -6 0 -123 68 -147 86
-2 2 0 20 3 40 7 35 9 36 40 31 18 -3 58 -22 89 -41z m-2980 -35 c15 -27 27
-51 27 -54 0 -3 -34 -18 -77 -33 l-76 -28 -29 34 c-15 19 -28 37 -28 40 0 8
131 88 145 89 6 1 22 -21 38 -48z m963 -111 c28 -85 48 -158 45 -161 -13 -14
-113 -41 -121 -33 -13 13 -121 326 -115 332 8 8 78 20 110 19 29 -2 30 -5 81
-157z m2844 113 c38 -27 69 -50 69 -53 0 -3 -21 -29 -47 -58 l-48 -53 -65 48
-65 48 26 42 c30 47 50 73 57 73 3 0 36 -21 73 -47z m438 -34 l94 -71 -32 -33
-33 -34 -80 59 c-44 33 -85 61 -90 63 -10 3 31 87 41 87 3 0 48 -32 100 -71z
m-3477 1 c10 -30 19 -55 19 -57 0 -5 -207 -103 -216 -102 -14 0 -134 164 -123
167 16 6 283 50 292 48 5 -1 17 -26 28 -56z m2796 3 l61 -43 -15 -30 c-8 -17
-17 -30 -19 -30 -3 0 -21 11 -41 25 -43 29 -26 48 -147 -158 -64 -109 -95
-151 -114 -159 -43 -16 -99 -21 -106 -9 -10 15 294 462 308 454 6 -4 39 -26
73 -50z m489 -5 c14 -14 13 -20 -8 -52 -13 -20 -27 -36 -31 -36 -7 0 -60 35
-90 61 -5 3 6 23 23 43 l32 36 30 -18 c16 -9 36 -24 44 -34z m-1416 -59 c36
-21 64 -42 62 -49 -1 -6 -34 -60 -73 -121 l-71 -110 -61 83 c-33 46 -66 86
-72 90 -7 4 -23 16 -36 26 l-23 20 58 76 58 76 47 -27 c25 -15 75 -44 111 -64z
m387 -30 c92 -56 169 -103 171 -104 4 -3 -116 -185 -122 -185 -1 0 -36 12 -77
26 -72 24 -77 25 -189 14 -63 -6 -132 -13 -152 -16 -22 -3 -38 -2 -38 4 0 5
45 78 99 161 55 83 102 165 106 182 5 20 12 29 20 25 8 -3 89 -51 182 -107z
m-2557 32 c25 -32 45 -64 45 -71 0 -11 -122 -67 -129 -59 -6 6 -86 168 -86
173 0 6 44 13 90 14 31 1 40 -5 80 -57z m1100 -10 c109 -45 105 -40 90 -99
l-12 -50 -31 10 c-18 5 -87 13 -153 17 l-122 6 46 80 c25 44 50 83 55 87 6 3
20 0 31 -7 12 -7 55 -27 96 -44z m-1271 17 c6 -17 8 -35 4 -39 -9 -7 -75 -30
-78 -27 -1 2 -8 22 -17 45 -18 47 -15 51 44 52 32 1 37 -3 47 -31z m-116 -5
c34 -67 35 -66 -65 -126 -51 -31 -100 -59 -109 -62 -11 -4 -28 12 -58 55 -38
54 -40 61 -24 67 10 3 68 26 128 49 61 24 111 43 112 43 1 1 9 -11 16 -26z
m1819 -8 l57 -36 -21 -34 c-11 -19 -24 -35 -30 -35 -20 0 -118 50 -118 61 0 6
9 23 20 39 11 15 17 30 13 34 -20 19 31 1 79 -29z m269 -17 c32 -22 59 -46 59
-52 0 -9 -129 -219 -144 -233 -3 -3 -41 7 -86 22 -73 24 -80 29 -74 48 27 95
144 273 171 262 8 -3 42 -24 74 -47z m1907 -5 c42 -31 79 -58 81 -60 8 -6 -52
-63 -65 -63 -14 0 -140 85 -150 101 -6 11 36 79 49 79 4 0 42 -25 85 -57z
m-4820 -84 c41 -72 72 -132 70 -133 -1 -2 -27 -16 -57 -31 -49 -24 -56 -26
-66 -11 -32 44 -138 250 -129 253 5 2 27 14 49 28 22 13 45 24 50 24 6 0 43
-58 83 -130z m4600 99 c26 -17 49 -33 51 -34 3 -3 -20 -41 -70 -117 -7 -10
-118 62 -119 76 0 8 81 107 88 107 2 0 24 -14 50 -32z m-2102 -48 c3 0 -5 -18
-16 -40 -11 -22 -23 -40 -26 -40 -3 0 -31 21 -62 47 -32 26 -58 48 -59 48 -1
0 1 12 4 27 l5 27 75 -35 c42 -19 77 -34 79 -34z m1914 -26 c0 -18 -38 -47
-52 -38 -7 4 -34 23 -60 41 -48 34 -48 35 -33 64 l15 29 65 -43 c36 -23 65
-47 65 -53z m-2936 -36 c20 -56 33 -104 29 -108 -10 -9 -132 -50 -148 -50 -11
0 -125 143 -125 157 0 9 177 101 196 102 7 1 28 -45 48 -101z m2726 83 l24
-19 -47 -76 c-35 -56 -47 -87 -47 -115 l0 -38 -72 -16 c-40 -9 -74 -14 -76
-13 -5 6 173 295 183 296 6 0 21 -9 35 -19z m-3212 -57 l22 -45 -46 -20 c-25
-12 -47 -19 -49 -17 -7 8 -35 82 -35 93 0 13 41 33 71 34 8 1 24 -18 37 -45z
m1410 -22 c68 -55 54 -81 -33 -58 -49 12 -50 14 -47 47 5 69 7 70 80 11z m170
22 c2 -1 -9 -27 -25 -58 -27 -57 -48 -68 -82 -47 -11 7 -7 20 19 69 31 59 33
60 59 49 14 -6 27 -12 29 -13z m1733 -10 c35 -22 56 -41 52 -48 -26 -43 -92
-106 -115 -111 -16 -3 -41 -8 -58 -11 -29 -5 -30 -4 -30 30 0 23 14 58 42 105
24 39 44 71 46 71 2 0 30 -16 63 -36z m438 -9 c71 -50 77 -43 -56 -70 -103
-21 -109 -16 -61 56 22 32 43 59 46 59 4 0 36 -20 71 -45z m-1632 -71 c84
-111 82 -103 33 -179 -24 -36 -48 -64 -54 -61 -6 2 -55 25 -109 49 -54 25
-107 47 -118 50 -19 5 -16 12 32 89 29 46 63 100 77 121 l25 37 31 -19 c17
-10 54 -50 83 -87z m-2236 69 c29 -75 29 -74 -77 -117 l-97 -40 -23 30 c-13
16 -24 31 -24 34 1 8 183 118 198 119 7 1 17 -11 23 -26z m363 -45 c30 -40 64
-84 76 -96 12 -13 18 -27 14 -32 -5 -4 -43 -19 -85 -32 l-76 -25 -62 94 c-37
55 -59 99 -54 104 6 6 117 56 130 59 2 0 27 -33 57 -72z m-591 -134 l139 -189
-89 -18 -88 -19 -65 31 c-93 45 -182 120 -240 204 l-51 72 117 58 c65 31 122
56 128 54 6 -2 73 -89 149 -193z m1982 173 c18 -14 18 -15 -1 -66 -17 -50 -19
-51 -49 -45 -46 10 -49 18 -18 73 30 54 38 59 68 38z m1847 1 c12 -7 29 -19
37 -25 9 -7 25 -19 36 -28 19 -14 19 -16 2 -29 -18 -14 -198 -51 -216 -44 -11
3 98 138 111 138 5 0 18 -6 30 -12z m-3393 -129 c34 -50 61 -94 61 -98 0 -9
-139 -55 -145 -49 -2 2 -17 39 -34 83 -16 44 -32 88 -36 97 -6 14 2 22 36 37
24 11 47 20 51 20 4 1 34 -40 67 -90z m1130 56 c67 -16 67 -16 63 -46 -4 -31
-5 -31 -46 -24 -22 4 -77 11 -121 14 -72 5 -81 8 -92 31 -12 23 -11 25 15 31
49 12 112 9 181 -6z m-229 -36 c0 -18 -10 -19 -150 -19 -82 0 -150 4 -150 9 0
5 35 14 78 20 206 31 222 30 222 -10z m-1043 -66 c18 -49 34 -94 35 -102 2 -9
-21 -22 -67 -37 l-70 -25 -22 27 c-12 15 -40 54 -63 86 l-41 58 63 28 c35 15
74 33 88 39 14 7 30 12 35 12 6 1 25 -38 42 -86z m1513 41 c74 -20 139 -40
145 -45 6 -6 4 -15 -5 -24 -13 -12 -34 -10 -160 16 -80 17 -146 32 -148 34 -7
7 11 55 22 55 6 0 72 -16 146 -36z m-2200 -19 c17 -25 28 -50 25 -55 -3 -6
-28 -10 -56 -10 l-49 0 0 43 c0 41 9 53 47 66 1 1 16 -19 33 -44z m4470 -202
l80 -247 -41 -42 -41 -41 21 -68 c12 -38 19 -70 16 -73 -3 -3 -64 -7 -136 -10
l-131 -5 -84 89 c-46 49 -92 104 -100 122 -18 35 -123 131 -302 275 -62 49
-109 93 -105 97 16 14 224 61 424 94 112 19 222 39 244 44 77 19 67 34 155
-235z m-3062 225 c-5 -14 -17 -20 -133 -74 -72 -32 -75 -32 -96 -15 -21 17
-20 18 97 58 135 47 137 48 132 31z m106 -90 c16 -46 28 -87 28 -92 -1 -7 -69
-34 -89 -36 -4 0 -53 165 -53 177 0 11 42 31 70 32 10 1 25 -26 44 -81z m102
74 c-3 -5 4 -37 14 -73 11 -35 16 -67 12 -70 -4 -4 -23 -10 -42 -14 l-35 -6
-27 74 c-16 40 -28 79 -28 85 0 8 20 12 56 12 30 0 53 -4 50 -8z m148 -42 c10
-27 15 -53 12 -58 -8 -14 -98 -34 -106 -25 -9 10 -40 102 -40 120 0 9 17 13
58 13 l58 0 18 -50z m86 -2 c6 -29 13 -61 15 -70 4 -21 -20 -24 -32 -5 -7 11
-53 119 -53 125 0 1 13 2 29 2 27 0 30 -4 41 -52z m82 37 c69 -10 72 -15 59
-71 -17 -72 -21 -76 -66 -66 -38 8 -40 9 -52 67 -16 78 -16 88 1 82 7 -3 34
-8 58 -12z m-2032 -4 c0 -5 3 -22 6 -39 l6 -30 -68 -7 c-65 -7 -75 -12 -157
-72 -48 -36 -89 -64 -91 -62 -2 2 -6 18 -8 34 -3 29 0 32 147 107 155 80 165
84 165 69z m-659 -106 c22 -50 41 -98 44 -107 5 -13 -15 -26 -91 -62 -53 -25
-101 -46 -106 -46 -5 0 -7 12 -4 28 2 15 8 70 11 123 l7 97 41 30 c23 17 46
30 51 29 5 -2 26 -43 47 -92z m4147 74 c34 -11 62 -25 62 -31 0 -22 -153 -229
-165 -224 -7 2 -43 23 -80 45 -76 46 -77 46 -122 -25 -15 -24 -30 -44 -33 -44
-4 0 -127 90 -159 116 -2 2 16 33 40 70 24 37 47 72 51 77 6 10 197 33 294 36
28 0 78 -8 112 -20z m-1979 -77 c13 -45 22 -84 20 -87 -9 -9 -311 -96 -321
-93 -9 3 -61 119 -55 123 1 1 56 26 122 56 66 29 136 61 155 71 19 9 39 16 45
14 5 -1 20 -39 34 -84z m779 61 c72 -15 132 -30 132 -33 0 -17 -63 -120 -73
-120 -7 0 -67 12 -135 26 -123 27 -123 27 -117 53 21 88 27 101 43 101 9 0 77
-12 150 -27z m202 -9 c0 -14 -21 -19 -33 -7 -9 9 13 34 24 27 5 -3 9 -12 9
-20z m142 -35 c-2 -8 -7 -17 -10 -21 -11 -11 -72 29 -72 46 0 12 6 12 43 1 26
-8 41 -18 39 -26z m-1373 22 c7 -5 11 -13 7 -19 -6 -11 -117 -65 -121 -60 -10
12 -26 51 -23 54 9 8 84 33 103 33 11 0 26 -3 34 -8z m-1096 -15 c10 -25 164
-135 227 -163 l62 -26 94 17 c52 10 97 17 99 15 3 -4 44 -373 41 -376 -7 -7
-268 -73 -275 -69 -5 3 -14 19 -21 36 -7 17 -20 30 -29 30 -10 0 -75 -11 -145
-25 -71 -14 -130 -24 -133 -22 -4 5 -53 507 -53 554 0 28 3 32 33 36 70 8 95
7 100 -7z m2297 -2 c0 -16 -32 -130 -39 -137 -4 -4 -15 -1 -25 6 -17 13 -17
17 13 75 17 34 36 62 41 62 6 0 10 -3 10 -6z m-2450 -11 c0 -5 11 -125 25
-268 14 -143 25 -272 25 -286 0 -25 -4 -28 -62 -38 -46 -8 -68 -17 -80 -33 -9
-13 -23 -32 -31 -43 -9 -11 -17 -18 -20 -15 -2 3 -29 40 -60 82 -33 47 -79 96
-116 124 l-61 46 0 79 c0 72 3 87 36 150 32 62 47 78 121 132 46 34 99 65 116
68 47 9 107 10 107 2z m2501 -20 c7 -20 6 -42 -3 -82 -15 -59 -24 -68 -52 -48
-18 13 -18 16 -2 73 9 32 19 65 21 72 7 21 25 13 36 -15z m235 -3 c42 -17 93
-39 113 -49 l36 -19 -38 -18 -38 -18 -85 44 c-94 49 -97 51 -88 74 8 21 11 21
100 -14z m953 3 c20 -14 38 -28 41 -31 3 -2 -44 -51 -105 -108 l-110 -104 -17
23 c-16 21 -16 23 0 47 103 154 137 200 145 200 6 0 26 -12 46 -27z m-2577
-18 c8 -19 12 -33 8 -30 -6 4 -87 -32 -334 -145 -52 -24 -82 -12 -90 38 -3 20
-4 37 -2 39 5 5 379 131 391 132 6 1 18 -15 27 -34z m806 -62 c37 -106 45
-133 39 -133 -3 0 -38 15 -80 34 -71 33 -75 37 -91 82 -22 66 -21 70 27 87 71
26 71 25 105 -70z m764 21 l110 -57 -52 -30 -52 -30 -46 19 c-43 18 -46 22
-63 84 -10 36 -18 66 -19 68 -1 7 21 -3 122 -54z m-719 16 c6 -17 21 -33 32
-36 40 -13 44 -21 28 -77 -17 -57 -33 -83 -33 -51 0 10 -14 57 -30 104 -35 99
-33 90 -19 90 6 0 16 -14 22 -30z m81 -1 c5 -4 6 -15 3 -24 -6 -14 -9 -14 -37
0 -39 20 -41 48 -2 39 15 -4 31 -10 36 -15z m-280 -36 c9 -25 15 -47 13 -49
-1 -1 -33 12 -72 31 -66 31 -69 33 -45 43 27 10 58 19 77 21 6 0 18 -20 27
-46z m-2099 -2 c6 -34 1 -49 -29 -104 l-36 -64 0 -223 c0 -208 -1 -222 -17
-214 -10 4 -41 10 -70 12 -64 5 -130 -16 -199 -61 l-51 -34 -28 25 c-25 21
-27 26 -14 36 8 6 49 37 91 70 64 48 79 64 84 94 7 38 -3 333 -12 357 -4 10
31 32 123 79 70 36 133 65 140 65 6 1 14 -17 18 -38z m2652 -16 l23 -5 -22
-45 c-12 -25 -26 -45 -30 -45 -8 0 -219 98 -226 105 -2 2 -1 12 2 23 7 20 8
19 119 -4 62 -13 122 -26 134 -29z m1517 -17 l77 -62 -35 -35 -35 -35 -27 30
c-14 16 -47 51 -73 77 l-46 48 24 20 c13 10 27 19 31 19 4 0 42 -28 84 -62z
m-2683 -3 c11 -27 17 -55 15 -61 -2 -5 -63 -27 -136 -49 l-132 -38 -54 17
c-29 9 -56 21 -59 27 -4 5 15 19 42 30 26 12 100 46 163 75 63 29 121 52 129
51 7 -1 22 -24 32 -52z m629 -35 c95 -44 175 -82 177 -84 6 -5 -26 -106 -33
-106 -2 0 -83 39 -179 87 -150 75 -176 92 -185 117 -17 50 -12 60 36 65 6 0
89 -35 184 -79z m764 1 c9 -39 16 -72 16 -75 0 -12 -26 -5 -49 13 -22 17 -23
20 -10 74 6 32 16 57 20 57 4 0 15 -31 23 -69z m344 40 c-14 -22 -33 -27 -43
-11 -5 8 46 42 53 35 2 -2 -3 -12 -10 -24z m-1327 -87 c21 -70 26 -100 18
-105 -7 -4 -49 -17 -95 -29 -68 -18 -89 -29 -120 -61 -21 -22 -43 -39 -49 -39
-25 0 -166 64 -162 74 2 6 12 45 22 87 l18 76 166 50 c91 27 167 49 169 48 2
-2 17 -47 33 -101z m808 -66 c-21 -72 -41 -133 -44 -136 -6 -6 -84 28 -91 40
-6 9 113 240 128 249 6 4 18 0 28 -8 16 -14 14 -23 -21 -145z m909 133 l43
-28 -26 -31 c-25 -30 -28 -31 -53 -18 -61 32 -64 37 -41 74 12 17 24 32 27 32
4 0 26 -13 50 -29z m-1115 -23 c130 -59 127 -54 83 -132 -20 -36 -40 -66 -44
-66 -12 0 -156 81 -171 95 -12 12 -12 23 3 79 10 37 23 66 28 66 5 0 51 -19
101 -42z m1590 -24 c34 -36 63 -69 65 -74 4 -9 -141 -140 -156 -140 -5 0 -38
31 -71 69 l-62 69 73 71 c40 39 76 71 81 71 4 0 35 -30 70 -66z m-742 10 c32
-25 59 -48 59 -51 0 -10 -61 -113 -68 -113 -5 0 -102 64 -131 86 -4 3 71 124
77 124 2 0 30 -21 63 -46z m-171 26 c18 -9 15 -17 -41 -105 l-61 -94 -29 15
c-16 8 -29 20 -28 27 1 32 66 141 88 149 20 7 22 6 16 -9 -16 -41 -23 -73 -15
-73 5 0 16 23 25 50 18 55 18 54 45 40z m-369 -19 c6 -6 -63 -267 -74 -277 -3
-3 -16 2 -30 11 l-25 16 39 132 c22 72 39 133 39 135 0 5 44 -9 51 -17z m166
-12 c22 -8 24 -12 13 -19 -23 -15 -37 -12 -43 10 -6 23 -7 23 30 9z m729 -10
c5 -9 -61 -119 -72 -119 -10 0 -134 93 -134 101 0 15 19 10 66 -17 l45 -27 30
37 c31 36 52 45 65 25z m-656 -2 c0 -12 -52 -107 -58 -107 -19 0 -44 28 -41
44 4 21 99 81 99 63z m-950 -97 c174 -88 166 -78 135 -183 -21 -74 -38 -82
-141 -71 l-77 9 -48 160 c-27 88 -49 163 -49 167 0 10 5 8 180 -82z m2219 48
c17 -15 31 -30 31 -35 0 -4 -16 -23 -35 -42 l-36 -34 -39 38 c-22 22 -40 44
-40 50 0 16 64 64 76 57 6 -4 25 -19 43 -34z m-4645 -10 c9 -66 14 -254 9
-283 -10 -48 -33 -47 -91 5 l-54 48 -13 98 c-8 54 -13 100 -11 102 6 5 140 70
148 71 4 1 9 -18 12 -41z m1836 33 c0 -13 -31 -145 -35 -149 -2 -2 -93 32
-185 71 -23 9 -14 14 90 48 131 42 130 42 130 30z m1350 -26 c17 -9 30 -21 30
-28 0 -29 -90 -197 -105 -197 -27 0 -27 24 0 121 38 139 30 127 75 104z m973
-6 c6 -10 -3 -32 -33 -77 -23 -34 -45 -62 -48 -62 -4 0 -15 7 -25 14 -17 13
-15 18 29 80 48 66 59 73 77 45z m-2579 -68 c109 -44 200 -82 203 -85 3 -3 2
-17 -1 -32 l-7 -26 -122 7 c-67 4 -153 10 -192 14 l-70 6 -10 98 c-6 53 -8 97
-5 97 4 0 95 -36 204 -79z m2262 23 c43 -31 81 -58 83 -60 2 -1 -16 -27 -40
-57 l-42 -55 -56 39 c-31 21 -67 47 -80 57 l-24 19 34 56 c19 31 37 57 40 57
3 0 42 -25 85 -56z m-280 5 c19 -11 34 -23 34 -26 0 -4 -68 -99 -123 -170 -6
-9 -6 -13 1 -13 5 0 36 35 67 78 32 42 61 81 65 85 8 9 50 -13 50 -26 0 -10
-131 -227 -137 -227 -2 0 -20 11 -39 25 -19 14 -50 36 -69 50 l-35 26 73 109
c39 60 74 110 76 110 2 0 19 -9 37 -21z m-830 -34 c43 -25 82 -45 86 -45 24 0
2 -24 -38 -42 -43 -18 -52 -19 -105 -8 -33 7 -59 14 -59 17 0 6 33 123 35 123
1 0 37 -20 81 -45z m1518 -23 c43 -45 61 -72 65 -99 5 -33 11 -39 56 -57 63
-25 62 -24 44 -41 -19 -19 -84 -4 -148 32 -37 22 -154 97 -170 109 -5 4 82
125 88 122 3 -2 33 -31 65 -66z m298 31 c21 -20 38 -42 38 -47 0 -14 -132
-146 -146 -146 -6 0 -32 9 -58 20 -69 31 -64 52 37 139 45 39 84 71 87 71 2 0
21 -17 42 -37z m198 -18 l44 -44 -27 -53 c-14 -29 -29 -73 -33 -97 l-7 -44
-140 7 c-78 3 -143 9 -146 11 -2 3 35 44 83 92 l87 88 33 -39 c18 -21 36 -34
39 -29 4 5 -9 25 -28 43 l-35 34 37 38 c20 21 40 38 43 38 3 0 26 -20 50 -45z
m-1450 25 c18 -10 18 -11 -1 -56 -27 -61 -16 -69 13 -10 12 25 24 46 27 46 4
0 17 -9 30 -19 l25 -19 -34 -53 c-19 -30 -35 -56 -37 -58 -3 -4 -125 -2 -129
2 -3 3 80 177 84 177 2 0 12 -5 22 -10z m-1026 -42 c3 -13 17 -58 30 -101 l25
-79 -62 7 c-91 10 -139 22 -202 50 l-57 25 38 35 c25 24 61 43 113 59 96 31
107 31 115 4z m1450 -51 l29 -24 -31 -46 c-18 -25 -32 -49 -32 -54 0 -4 16
-18 35 -31 l35 -22 -41 -53 c-23 -28 -44 -53 -48 -55 -4 -1 -34 18 -68 43
l-62 45 66 110 c36 60 71 110 77 110 6 0 24 -11 40 -23z m-744 -48 c0 -3 -11
-32 -24 -65 -19 -45 -29 -58 -43 -56 -81 13 -109 11 -161 -13 -30 -14 -61 -25
-69 -25 -15 0 -103 57 -103 66 0 8 32 118 35 122 1 1 29 -4 61 -13 l59 -16 64
29 64 29 58 -26 c33 -14 59 -28 59 -32z m-1090 11 c41 -17 75 -32 77 -34 4 -4
-28 -99 -36 -108 -6 -7 -157 14 -166 23 -4 4 45 149 50 149 1 0 35 -14 75 -30z
m2145 10 c19 -21 12 -39 -118 -317 l-29 -62 -69 34 -69 35 71 93 c40 50 96
125 127 165 30 39 58 72 62 72 4 0 15 -9 25 -20z m822 -22 c20 -22 33 -48 37
-75 l6 -43 -70 0 c-38 0 -70 3 -70 8 2 49 40 142 58 142 5 0 22 -15 39 -32z
m-5047 -11 c0 -18 5 -38 11 -44 9 -9 15 -181 6 -189 -1 -1 -14 0 -29 3 l-28 5
0 122 c0 68 3 126 7 129 17 18 33 5 33 -26z m3991 6 c36 -21 36 -26 3 -69 -30
-39 -40 -41 -73 -15 l-24 18 29 42 c16 22 31 41 32 41 2 0 17 -8 33 -17z
m-4051 -109 c0 -105 -2 -115 -17 -110 -10 3 -58 15 -108 26 -49 12 -96 24
-103 26 -14 4 148 150 183 164 44 19 45 15 45 -106z m602 81 c41 -30 197 -230
187 -239 -2 -2 -39 -14 -81 -26 -43 -13 -78 -27 -78 -32 0 -5 -20 8 -45 29
l-44 38 -1 133 c0 72 3 132 8 132 4 0 28 -16 54 -35z m1192 2 c3 -12 6 -34 6
-49 0 -28 0 -28 -69 -28 -76 0 -81 4 -81 68 l0 37 69 -3 c61 -3 70 -6 75 -25z
m1521 -1 c30 -14 55 -31 55 -38 0 -16 -47 -118 -54 -118 -14 0 -116 50 -116
57 0 16 45 123 52 123 4 0 32 -11 63 -24z m1102 -28 c47 -29 87 -58 90 -65 4
-11 -41 -127 -57 -146 -6 -7 -184 73 -202 91 -7 7 66 172 77 172 3 0 45 -24
92 -52z m-2435 36 l36 -6 -12 -37 -13 -36 -85 -3 c-93 -3 -97 0 -98 66 0 21 4
22 68 22 37 0 83 -3 104 -6z m403 -64 c22 -10 82 -44 134 -77 l94 -58 17 -100
c9 -55 20 -109 23 -120 6 -17 -17 -37 -145 -128 l-152 -108 -14 28 c-26 50
-135 172 -200 224 -68 54 -67 50 -21 104 9 11 24 40 32 65 14 39 35 97 76 202
l10 28 53 -21 c29 -11 71 -29 93 -39z m2820 -28 c-28 -6 -45 7 -45 35 l0 27
31 -30 c24 -23 27 -30 14 -32z m-3907 -17 c-5 -5 -268 -75 -282 -75 -13 0 -31
69 -21 79 3 2 67 17 143 31 l137 28 13 -30 c7 -17 12 -32 10 -33z m2189 47 c9
-6 -7 -27 -50 -70 -56 -55 -65 -61 -81 -49 -17 12 -16 16 8 70 25 57 25 57 68
57 24 0 49 -4 55 -8z m-1871 -149 c21 -207 23 -193 -43 -239 -85 -59 -82 -58
-93 -29 -5 14 -20 50 -33 78 -62 139 -110 258 -105 263 7 7 252 73 256 69 2
-2 10 -65 18 -142z m-1468 104 l31 -32 -34 -28 c-19 -15 -36 -27 -39 -27 -4 0
-6 27 -6 60 0 33 4 60 8 60 4 0 22 -15 40 -33z m2499 10 c62 -8 111 -9 127 -4
22 7 36 3 81 -28 43 -30 58 -48 79 -97 14 -33 26 -61 26 -63 0 -3 -24 -17 -52
-31 -29 -15 -86 -46 -125 -70 -40 -24 -77 -44 -82 -44 -12 0 -17 15 -36 125
-9 50 -18 100 -20 111 -3 14 -31 37 -74 63 -80 47 -95 63 -54 56 15 -3 74 -11
130 -18z m3155 -34 l21 -47 -51 -45 c-28 -25 -84 -76 -125 -114 l-74 -67 -127
127 c-69 69 -126 127 -126 128 0 1 67 5 149 8 120 5 162 11 217 30 38 13 75
25 82 26 7 0 22 -20 34 -46z m-4824 -28 l-3 -38 -82 -22 c-104 -29 -119 -19
-69 46 29 38 41 46 87 55 30 6 58 7 62 4 5 -4 7 -24 5 -45z m997 33 c-12 -41
-24 -112 -24 -153 l-1 -40 -72 -2 c-43 -1 -97 -10 -130 -22 l-57 -20 -6 32
c-5 30 -25 203 -25 220 0 4 73 7 161 7 l161 0 -7 -22z m148 5 c26 -3 47 -8 47
-12 0 -28 -59 -152 -84 -177 -29 -29 -33 -30 -75 -22 l-44 10 6 76 c3 43 11
92 18 111 11 31 14 33 48 27 20 -4 57 -9 84 -13z m1041 6 c16 -15 -15 -55 -76
-100 -38 -27 -76 -53 -83 -55 -10 -4 -22 12 -40 52 -14 31 -23 59 -21 62 3 2
27 15 53 28 37 18 61 23 105 21 32 -2 60 -5 62 -8z m562 -76 c69 -47 127 -90
130 -95 5 -7 -387 -501 -408 -514 -10 -7 -108 84 -108 100 0 10 19 28 145 140
50 44 90 83 90 87 0 4 -38 46 -84 94 l-84 87 94 94 c51 52 95 94 97 94 2 0 60
-39 128 -87z m914 57 c60 0 98 -17 175 -75 71 -53 75 -58 75 -96 0 -21 -2 -39
-5 -39 -3 0 -24 9 -46 21 -23 11 -42 19 -44 17 -2 -2 -28 -56 -59 -121 l-56
-119 -79 43 -79 43 14 28 c8 15 15 31 16 35 1 5 10 17 20 27 15 16 22 18 43 8
15 -7 25 -8 25 -2 0 6 -38 29 -85 52 -47 23 -85 47 -85 53 0 5 14 42 31 81
l31 71 37 -13 c20 -7 52 -13 71 -14z m-1386 -22 l55 -23 -6 -45 c-6 -39 -14
-53 -72 -106 -79 -73 -207 -184 -213 -184 -12 0 -118 142 -113 150 4 6 24 19
45 30 21 11 50 30 63 42 14 13 54 43 91 68 38 26 69 55 72 68 8 27 11 27 78 0z
m-1916 -35 c11 -27 18 -51 14 -54 -6 -5 -291 -77 -327 -83 -5 0 -12 23 -15 52
l-6 52 41 12 c91 25 251 66 261 67 6 1 21 -20 32 -46z m3612 -74 l0 -121 -22
14 c-18 12 -22 23 -19 64 l2 49 -77 58 -78 57 97 0 97 0 0 -121z m335 100 c4
-5 -4 -20 -17 -32 -20 -19 -35 -22 -96 -22 -89 0 -110 -16 -119 -94 -6 -49 -4
-54 26 -85 27 -28 30 -35 17 -45 -12 -10 -22 -8 -53 10 l-38 22 3 128 3 129
134 0 c83 0 136 -4 140 -11z m-995 -34 c28 -14 50 -29 50 -34 0 -21 -40 -101
-51 -101 -6 0 -33 12 -60 26 -38 21 -46 30 -40 43 5 9 16 33 24 54 9 20 19 37
22 37 3 0 28 -11 55 -25z m-936 -4 c3 -4 -3 -16 -14 -26 -19 -17 -20 -17 -20
2 0 29 22 45 34 24z m2018 -48 l57 -58 -50 -60 c-28 -33 -66 -86 -86 -117 -20
-32 -38 -58 -40 -58 -11 0 -143 76 -143 83 0 15 160 246 177 256 26 15 23 16
85 -46z m478 9 l13 -33 -99 -102 c-54 -56 -104 -103 -109 -105 -6 -1 -24 11
-40 29 l-30 31 120 113 c66 63 123 111 126 107 3 -4 12 -22 19 -40z m-5378 16
c22 -6 62 -32 90 -56 l49 -45 -42 -43 c-27 -28 -61 -50 -92 -60 -26 -9 -50
-14 -51 -13 -2 2 -18 32 -35 67 l-31 62 -38 -16 c-60 -26 -71 -27 -98 -9 -25
16 -25 17 -7 37 33 37 140 84 197 87 10 1 37 -4 58 -11z m523 -69 c4 -33 5
-63 2 -66 -3 -3 -38 16 -77 42 -39 26 -69 49 -66 52 6 6 97 31 118 32 12 1 18
-12 23 -60z m3440 3 c-4 -9 -14 -36 -22 -59 l-15 -42 -43 21 c-47 23 -46 17
-11 101 l16 37 41 -21 c31 -15 39 -24 34 -37z m788 52 c4 -5 -69 -126 -99
-162 -1 -2 -14 4 -28 15 -21 15 -25 26 -26 66 0 66 23 87 93 87 30 0 56 -3 60
-6z m-3807 -134 c24 -58 49 -113 54 -123 9 -14 2 -22 -42 -51 -106 -67 -303
-156 -346 -156 -16 0 -21 21 -40 176 -13 97 -21 178 -20 180 6 5 324 82 336
81 8 -1 33 -49 58 -107z m-500 39 c76 -49 94 -66 94 -85 0 -23 -3 -24 -47 -19
-27 2 -101 7 -166 11 l-118 6 -20 40 c-11 22 -18 43 -14 46 6 7 153 60 168 61
5 1 51 -26 103 -60z m3601 23 l53 -27 -30 -53 c-17 -28 -35 -52 -40 -52 -18 0
-80 34 -80 43 0 18 34 117 39 117 3 -1 30 -13 58 -28z m-994 -192 c-21 -19
-74 -66 -117 -105 -43 -38 -99 -89 -125 -112 -25 -23 -49 -43 -52 -43 -9 0
-149 167 -148 177 0 4 44 45 97 91 53 45 123 108 156 138 l59 56 84 -84 84
-83 -38 -35z m750 154 c129 -65 217 -115 217 -122 0 -4 -4 -13 -9 -20 -6 -11
-43 4 -164 65 -148 73 -173 93 -150 116 9 10 7 11 106 -39z m605 -14 l70 -41
-32 -97 -33 -97 -41 -3 c-28 -2 -56 5 -91 23 -28 14 -51 28 -51 30 0 7 102
225 106 225 1 0 34 -18 72 -40z m-2923 -27 c4 -32 11 -77 15 -100 4 -23 5 -45
2 -48 -3 -3 -28 -5 -56 -5 l-52 0 -31 83 c-17 45 -34 90 -38 99 -8 19 11 25
97 27 l57 1 6 -57z m2425 -173 c0 -3 -4 -11 -9 -19 -7 -11 -45 3 -185 68 -97
44 -180 81 -185 81 -5 0 -23 -16 -40 -35 -17 -19 -34 -35 -38 -34 -4 0 -20 15
-35 33 l-26 32 39 52 40 52 219 -112 c121 -62 220 -115 220 -118z m1250 40 c0
-8 -9 -40 -20 -70 -12 -30 -23 -60 -25 -67 -2 -7 -51 7 -145 42 -78 30 -144
56 -147 59 -9 8 41 86 102 160 l57 68 89 -88 c49 -49 89 -95 89 -104z m-3520
125 c33 -26 60 -49 60 -53 0 -3 -17 -23 -37 -44 -33 -34 -42 -38 -88 -38 l-52
0 -11 78 c-18 117 -19 115 28 108 27 -4 61 -21 100 -51z m-302 -40 c40 -105
40 -115 5 -115 -16 0 -44 -3 -64 -6 -42 -7 -42 -7 -54 114 l-7 62 34 15 c18 8
38 14 43 15 6 0 25 -38 43 -85z m-1163 45 l16 -30 -34 0 c-44 0 -49 7 -30 36
20 31 29 30 48 -6z m-438 -2 c22 -20 27 -21 66 -9 84 25 81 25 99 -11 l16 -34
-50 -82 -51 -82 -146 -1 c-80 0 -161 -2 -178 -5 -49 -6 -40 11 20 39 73 35
127 90 171 175 20 38 23 39 53 10z m2702 -76 c33 -41 61 -77 61 -80 -1 -8 -62
-54 -170 -128 -118 -81 -114 -80 -141 -36 -51 83 -101 167 -102 174 -3 12 112
87 118 77 11 -16 30 -10 96 31 35 21 67 38 70 37 4 -1 34 -35 68 -75z m-1260
-96 c-2 -2 -48 -6 -101 -10 -127 -9 -128 2 -5 87 l92 65 9 -69 c5 -38 7 -71 5
-73z m-977 114 c4 -8 17 -35 28 -60 11 -25 28 -55 36 -67 l16 -23 -106 0 -106
0 0 48 c0 26 3 64 6 85 l7 38 55 -3 c36 -2 58 -8 64 -18z m4348 13 c0 -13 -50
-197 -55 -201 -3 -3 -11 0 -19 7 -12 10 -9 26 17 106 18 54 37 95 44 95 7 0
13 -3 13 -7z m-4495 -97 l-6 -72 -80 -3 c-43 -1 -79 1 -79 6 0 4 17 34 38 67
30 47 46 62 82 76 26 10 47 14 49 8 2 -5 0 -42 -4 -82z m400 85 l90 -6 15
-122 16 -123 -46 0 c-88 0 -150 26 -207 87 -41 44 -103 145 -103 168 0 7 122
5 235 -4z m3255 -77 c91 -42 166 -77 168 -79 2 -2 -3 -18 -11 -37 -13 -31 -25
-38 -135 -82 -67 -27 -124 -48 -128 -48 -4 1 -16 25 -28 54 -20 48 -68 136
-98 179 -9 13 -5 24 18 53 16 20 34 36 39 36 6 0 84 -34 175 -76z m908 52 l48
-24 -7 -74 c-4 -40 -8 -84 -8 -97 -1 -22 -4 -23 -57 -19 -85 7 -88 14 -56 136
14 56 28 102 29 102 2 0 25 -11 51 -24z m-2868 -18 c16 -18 30 -36 30 -40 0
-3 -31 -16 -70 -27 -69 -21 -70 -22 -70 -56 l0 -35 -49 0 c-52 0 -61 10 -61
72 0 26 3 27 59 34 52 6 62 10 91 45 17 22 34 39 36 39 2 0 18 -15 34 -32z
m2450 -75 c0 -27 -30 -23 -101 13 -41 20 -75 38 -77 39 -2 2 1 13 8 25 11 21
12 20 91 -22 43 -23 79 -48 79 -55z m-730 -63 c22 -36 48 -90 59 -121 l19 -56
-51 -37 c-28 -21 -56 -40 -62 -43 -8 -2 -22 32 -40 94 -20 73 -39 114 -72 160
l-44 63 38 45 38 46 38 -43 c21 -24 56 -72 77 -108z m1265 98 l45 -22 -6 -76
c-4 -41 -8 -76 -9 -78 -2 -2 -24 0 -49 3 l-46 7 0 48 c0 50 10 140 16 140 2 0
24 -10 49 -22z m530 -90 c91 -98 102 -116 80 -124 -20 -8 -217 66 -213 80 17
57 43 126 49 126 4 0 42 -37 84 -82z m-3750 26 c3 -26 3 -50 -2 -55 -4 -4 -35
-9 -68 -11 -52 -3 -60 -6 -60 -23 0 -17 -9 -21 -63 -28 -35 -5 -65 -7 -67 -5
-1 1 -4 35 -6 73 l-4 70 115 11 c63 6 122 12 131 12 13 2 19 -10 24 -44z m299
27 c16 -17 14 -19 -41 -44 -32 -14 -71 -27 -88 -29 -26 -3 -30 0 -30 21 0 21
9 27 65 47 81 28 74 27 94 5z m317 -80 c33 -52 59 -98 59 -103 0 -14 -88 -48
-195 -74 -146 -35 -140 -37 -151 47 l-10 71 111 79 c60 43 114 77 119 76 4 -2
35 -45 67 -96z m-1157 22 c4 -32 9 -74 12 -94 l6 -35 -113 -13 c-62 -7 -119
-15 -126 -18 -10 -4 -13 9 -13 51 l0 56 88 44 c48 24 96 51 107 59 11 9 23 14
26 11 3 -2 9 -29 13 -61z m3101 -14 c155 -79 265 -139 265 -144 0 -2 -3 -11
-6 -19 -5 -13 -30 -4 -143 55 -257 135 -280 149 -274 164 3 8 8 15 11 15 4 0
70 -32 147 -71z m205 46 c27 -14 65 -25 85 -25 39 0 40 -3 24 -49 l-11 -32
-87 47 c-103 56 -97 50 -81 69 16 19 12 20 70 -10z m-3087 -58 c5 -38 7 -70 5
-72 -9 -9 -181 -26 -188 -19 -5 5 -11 39 -15 76 l-7 67 33 5 c47 8 109 13 139
12 23 -1 26 -6 33 -69z m3768 24 c72 -27 133 -52 136 -55 9 -9 -29 -128 -43
-133 -11 -4 -206 22 -245 33 -17 5 -17 11 -3 152 3 28 10 52 15 52 5 0 68 -22
140 -49z m-1651 -16 c27 -37 48 -82 64 -138 37 -126 38 -118 -19 -133 -27 -8
-53 -14 -56 -14 -5 0 -105 203 -111 227 -3 10 68 113 78 113 2 0 22 -25 44
-55z m-1455 16 c14 -28 14 -31 -12 -51 l-26 -21 11 -76 c7 -42 10 -78 8 -80
-5 -5 -257 -35 -261 -31 -4 4 -33 212 -30 216 1 1 40 5 86 9 60 4 101 14 144
34 33 15 61 28 62 28 1 1 9 -12 18 -28z m-1699 -8 c-2 -10 -8 -60 -11 -110
l-7 -93 -103 0 c-56 0 -117 3 -134 6 l-31 7 0 97 c0 53 3 100 7 103 3 4 69 7
145 7 128 0 139 -1 134 -17z m164 -3 c7 -14 7 -46 -1 -110 l-12 -90 -79 0
c-78 0 -80 1 -75 23 3 12 9 61 12 110 l7 87 69 0 c58 0 70 -3 79 -20z m2304
-54 l57 -68 -166 -112 c-91 -61 -192 -128 -225 -148 l-61 -38 -11 28 c-7 15
-25 46 -40 69 -47 70 -41 81 70 136 53 26 144 83 202 126 58 44 108 79 112 78
3 -1 32 -33 62 -71z m1329 53 c23 -12 43 -23 45 -24 2 -2 -47 -123 -54 -133
-1 -2 -16 4 -34 13 -38 19 -49 13 -75 -45 -12 -27 -24 -40 -34 -37 -9 2 -15
10 -13 18 4 24 107 227 115 228 4 1 27 -9 50 -20z m-4133 -89 l0 -100 -26 0
c-14 0 -45 -13 -69 -30 -36 -25 -53 -30 -103 -30 -32 0 -61 2 -64 5 -3 3 7 49
22 103 15 53 30 109 34 125 l6 27 100 0 100 0 0 -100z m4683 56 c25 -18 54
-27 127 -35 138 -17 138 -17 133 -44 l-5 -23 -156 24 c-86 14 -160 27 -163 31
-9 9 10 71 22 71 6 0 25 -11 42 -24z m-4113 -13 c19 -9 69 -21 111 -27 l77
-10 4 -39 c2 -22 -1 -41 -7 -43 -21 -7 -238 -34 -242 -30 -7 7 9 166 17 166 4
0 22 -8 40 -17z m1147 -63 c6 -41 12 -89 12 -107 1 -31 0 -31 -60 -38 -33 -4
-64 -3 -69 1 -4 5 -11 55 -15 111 l-7 102 34 4 c18 2 47 4 63 3 29 -1 30 -2
42 -76z m2518 57 c6 -1 12 -5 15 -8 3 -4 31 -19 62 -35 l58 -29 -27 -38 c-14
-20 -30 -37 -35 -37 -17 0 -148 63 -148 71 0 5 7 27 16 49 13 31 21 40 33 35
9 -4 21 -7 26 -8z m-3335 -46 c0 -46 -1 -49 -31 -55 -17 -3 -44 -6 -60 -6 -27
0 -29 3 -29 38 0 37 2 39 48 54 71 24 72 24 72 -31z m4594 -24 c21 -7 34 -7
47 1 23 15 30 -5 22 -63 -4 -35 -10 -45 -24 -45 -24 0 -273 40 -277 45 -2 2 6
33 18 69 l21 65 82 -31 c45 -16 95 -35 111 -41z m-1535 -57 c-29 -61 -58 -110
-63 -110 -5 0 -28 11 -52 25 -35 21 -43 31 -49 66 -4 22 -5 43 -2 46 10 9 212
90 216 86 3 -2 -20 -53 -50 -113z m-902 88 c31 -29 29 -40 -16 -76 l-38 -31
-29 30 -29 31 40 34 c22 18 42 34 44 34 3 0 15 -10 28 -22z m333 -60 c44 -92
45 -89 -37 -102 l-41 -6 -17 50 c-9 27 -13 55 -9 62 10 18 58 78 62 78 1 0 20
-37 42 -82z m-1822 40 c4 -29 -16 -38 -85 -38 -39 0 -43 2 -43 25 0 25 9 30
75 38 44 6 50 3 53 -25z m-184 -20 c3 -13 7 -46 10 -75 6 -64 1 -66 -110 -57
l-81 7 -7 60 c-3 33 -4 62 -2 65 6 6 102 19 148 21 31 1 38 -3 42 -21z m-208
-23 c4 -14 3 -29 0 -33 -4 -3 -36 -8 -71 -10 -64 -4 -65 -4 -65 21 0 27 -1 26
90 40 14 3 28 5 32 6 4 0 10 -10 14 -24z m-1440 2 c2 -2 -2 -23 -9 -48 l-13
-44 -139 3 c-77 2 -142 6 -144 8 -2 2 2 24 9 50 l13 47 140 -6 c77 -3 141 -8
143 -10z m3216 -76 l76 -89 -129 -156 c-71 -86 -133 -156 -137 -156 -4 0 -58
58 -119 129 -94 108 -110 131 -98 141 26 21 319 220 325 220 3 0 40 -40 82
-89z m151 3 l-36 -45 -23 22 c-13 13 -24 27 -24 33 1 6 20 26 43 43 l42 33 17
-21 c17 -20 17 -22 -19 -65z m1317 71 c30 -15 37 -38 21 -63 -7 -11 -16 -10
-50 7 -41 21 -43 27 -18 59 12 15 12 15 47 -3z m-3396 -47 c4 -29 9 -70 12
-92 l6 -38 62 6 c36 3 53 2 41 -3 -11 -4 -72 -11 -135 -15 -63 -3 -134 -9
-156 -12 l-42 -6 -12 87 c-7 47 -10 88 -8 90 3 3 172 30 215 34 6 1 14 -21 17
-51z m3080 31 c8 -8 -20 -99 -30 -99 -13 0 -65 32 -62 38 37 76 42 82 62 76
12 -3 25 -10 30 -15z m125 -14 c73 -36 101 -43 101 -25 0 12 10 13 28 1 11 -6
9 -16 -8 -47 -12 -21 -26 -43 -31 -48 -18 -19 -8 -36 30 -56 43 -21 55 -35 46
-49 -3 -5 -49 11 -103 36 -53 25 -121 56 -150 69 l-52 25 16 37 c9 20 21 49
27 65 6 15 14 27 18 27 3 0 38 -16 78 -35z m-2657 -17 c3 -24 3 -46 1 -50 -2
-5 -31 -8 -64 -8 l-59 0 0 44 c0 49 5 52 81 55 36 1 37 0 41 -41z m3105 13 c7
-3 9 -12 4 -19 -11 -19 -122 5 -114 25 5 12 16 13 52 8 25 -4 51 -10 58 -14z
m-3904 -18 c3 -16 9 -56 12 -89 l7 -62 -58 -6 c-142 -14 -213 -18 -223 -12 -8
5 -6 16 4 37 13 23 14 37 5 67 -15 54 -13 58 23 60 25 2 192 25 218 31 4 0 9
-11 12 -26z m2508 -13 c7 -22 10 -42 8 -44 -2 -2 -28 -7 -58 -11 -52 -7 -53
-7 -40 12 31 43 64 82 71 82 4 1 13 -17 19 -39z m1219 25 c0 -2 -11 -26 -26
-54 -25 -51 -40 -67 -30 -33 3 9 10 36 16 59 8 31 15 41 25 37 8 -4 15 -8 15
-9z m-756 -32 c4 -21 9 -84 13 -140 5 -92 4 -103 -10 -103 -10 0 -26 9 -37 20
-28 28 -104 184 -92 188 5 1 32 18 58 37 27 19 52 35 55 35 4 0 9 -17 13 -37z
m1099 16 c74 -10 87 -15 87 -31 0 -16 -5 -18 -32 -13 -18 3 -69 11 -113 18
-65 10 -80 16 -83 31 -3 16 0 18 25 13 16 -3 68 -11 116 -18z m-4417 -9 l61 0
12 -43 c9 -29 9 -50 2 -69 l-10 -26 -123 5 c-86 4 -159 0 -242 -11 -65 -10
-120 -15 -122 -13 -2 2 8 41 22 87 l26 83 156 -6 c87 -4 185 -7 218 -7z m758
-14 c10 -41 -31 -76 -87 -76 l-45 0 -4 45 c-3 42 -2 44 27 48 85 11 103 8 109
-17z m3485 -2 c9 -3 11 -8 5 -14 -14 -14 -124 9 -124 25 0 9 13 10 53 3 28 -6
58 -12 66 -14z m-255 -7 c16 -12 17 -19 6 -70 -6 -31 -14 -57 -17 -57 -9 0
-73 41 -73 47 0 10 52 93 59 93 4 0 15 -6 25 -13z m701 -13 c55 -8 101 -17
104 -19 2 -2 1 -12 -3 -21 -5 -13 -15 -15 -50 -10 -39 6 -45 4 -51 -14 -3 -11
-14 -20 -23 -19 -32 1 -137 34 -134 42 1 4 2 21 2 38 0 28 2 30 28 25 15 -3
72 -13 127 -22z m-2773 -72 c16 -24 28 -45 26 -47 -14 -13 -174 -105 -183
-105 -8 0 -15 24 -19 63 -4 34 -10 78 -13 98 -5 37 -5 37 38 44 24 4 59 13 79
20 32 11 35 11 38 -8 2 -12 17 -41 34 -65z m1694 55 l62 -32 -20 -52 -20 -52
-38 19 -38 19 -26 -60 c-14 -33 -24 -64 -22 -67 3 -4 54 -32 115 -62 61 -30
111 -59 111 -65 0 -5 -8 -20 -18 -33 l-17 -22 -152 97 c-126 82 -152 103 -157
127 -8 38 -8 186 0 186 4 0 22 -9 41 -21 26 -16 32 -26 28 -43 -6 -20 -5 -20
14 3 12 13 21 30 21 39 0 19 29 52 44 52 6 -1 39 -15 72 -33z m792 12 c68 -10
92 -17 92 -28 0 -8 -14 -65 -31 -126 l-32 -112 -106 23 c-58 13 -109 23 -112
24 -4 0 7 54 24 121 27 111 32 120 51 116 12 -3 63 -11 114 -18z m-215 -5 c49
-7 54 -13 41 -61 -10 -36 -51 -30 -95 13 -37 36 -43 69 -10 60 9 -3 37 -8 64
-12z m-1133 -74 c22 -44 40 -82 40 -85 0 -3 -46 -5 -102 -5 l-103 0 5 77 c5
77 5 78 35 84 79 17 82 15 125 -71z m-180 -16 l0 -76 -42 7 c-71 11 -77 15
-88 53 -17 64 -15 68 43 79 93 18 87 22 87 -63z m338 -5 c24 -44 42 -82 40
-85 -3 -2 -20 1 -39 6 -18 6 -49 10 -67 10 -30 0 -35 5 -57 53 -14 28 -25 57
-25 63 0 9 56 29 95 33 6 0 30 -36 53 -80z m1782 58 l125 -22 -3 -35 c-3 -40
-38 -227 -53 -282 l-9 -37 -133 91 c-72 50 -134 92 -136 94 -2 1 3 50 9 108
l13 106 31 -1 c17 0 87 -10 156 -22z m-3286 -3 c3 -9 6 -31 6 -49 0 -29 -4
-35 -36 -45 -19 -7 -37 -10 -39 -8 -1 1 -6 26 -10 55 -6 48 -5 52 17 56 45 8
56 7 62 -9z m2441 -44 c4 -6 19 -10 36 -10 30 0 38 -20 20 -48 -14 -22 -75 -4
-111 33 -27 28 -30 36 -20 54 l11 22 29 -21 c16 -12 32 -25 35 -30z m-2540 18
c12 -55 24 -152 19 -159 -3 -5 -23 -9 -45 -9 l-39 0 0 41 0 41 -67 -3 -68 -4
-3 46 -3 46 73 10 c119 16 127 16 133 -9z m2197 -33 l107 -48 -30 -59 c-16
-32 -31 -58 -33 -58 -3 0 -25 9 -50 20 -59 25 -60 11 -2 -17 48 -24 51 -37 17
-81 l-17 -23 -125 63 c-68 35 -130 67 -136 71 -10 6 -9 16 3 45 22 53 27 56
72 33 46 -23 75 -28 50 -8 -15 11 -14 17 4 64 11 29 23 51 27 50 3 -2 54 -25
113 -52z m726 -47 l-3 -93 73 -9 c67 -8 72 -10 66 -30 -4 -12 -8 -23 -11 -25
-4 -5 -172 27 -185 35 -10 6 47 214 59 214 2 0 3 -42 1 -92z m249 78 c2 -2 1
-25 -2 -50 -7 -44 -9 -46 -39 -45 -17 0 -67 6 -111 12 l-80 12 3 35 c2 19 5
36 6 37 1 1 26 -4 56 -12 72 -19 77 -19 85 6 6 18 13 20 42 16 20 -4 38 -8 40
-11z m-3388 -91 c-4 -4 -52 -11 -145 -20 l-61 -7 -7 48 c-3 26 -4 49 -2 51 2
2 48 7 102 11 l99 7 9 -43 c4 -24 7 -45 5 -47z m1333 64 c5 -30 5 -30 -15 -11
-11 11 -16 25 -13 31 12 20 24 12 28 -20z m-1994 -65 l3 -72 -73 -6 c-40 -3
-109 -7 -152 -8 l-79 -3 -18 50 c-33 95 -38 91 119 102 75 6 151 10 167 9 l30
-1 3 -71z m257 20 c4 -31 5 -57 3 -59 -2 -1 -40 -7 -85 -12 -94 -10 -91 -12
-85 80 l4 47 78 0 78 0 7 -56z m171 45 c10 -17 -7 -26 -62 -32 -45 -5 -53 -3
-57 13 -3 10 -2 21 1 24 10 11 111 6 118 -5z m2981 -65 c48 -10 53 -13 53 -29
0 -8 -8 -15 -17 -15 -27 1 -143 27 -150 34 -4 3 1 22 11 42 l17 36 29 -31 c16
-17 42 -33 57 -37z m-3748 -25 c12 -39 21 -72 19 -73 -1 -2 -43 -13 -93 -25
-49 -12 -98 -24 -107 -27 -15 -4 -18 1 -18 28 -1 40 -23 103 -44 127 -9 10
-16 20 -16 24 0 6 61 11 181 15 l55 2 23 -71z m2306 41 c11 -16 23 -30 28 -30
10 0 9 -14 -2 -44 l-10 -24 -58 15 c-32 8 -60 16 -62 18 -4 5 69 95 78 95 3 0
15 -14 26 -30z m-561 -50 l47 -55 -47 -40 -46 -41 47 -67 c25 -37 50 -67 53
-67 4 0 27 21 51 45 48 48 56 52 64 32 5 -14 -218 -287 -235 -287 -6 0 -40 21
-77 48 -36 26 -85 60 -108 75 -39 27 -44 36 -87 164 -26 75 -45 136 -44 137
36 16 140 70 160 83 26 16 27 16 46 -7 l19 -24 49 36 c27 20 52 34 55 30 4 -4
28 -32 53 -62z m-974 36 c0 -26 -21 -36 -82 -36 -34 0 -38 3 -38 24 0 22 5 25
48 29 26 2 53 4 60 5 7 1 12 -8 12 -22z m560 -16 c0 -16 0 -33 0 -37 0 -5 -17
-8 -37 -8 -34 0 -38 3 -41 28 -3 21 2 29 20 36 44 18 58 13 58 -19z m2975 -3
c66 -11 70 -13 67 -37 -2 -14 -14 -44 -28 -67 -19 -32 -28 -40 -44 -36 -20 5
-20 13 -3 59 4 11 -7 14 -104 29 -41 6 -43 8 -43 41 l0 35 43 -6 c23 -4 74
-12 112 -18z m-3175 -27 c0 -33 -3 -40 -20 -40 -13 0 -20 7 -20 19 0 11 -3 26
-6 34 -4 11 2 17 18 20 13 2 24 5 26 6 1 0 2 -17 2 -39z m2430 35 c0 -18 -57
-115 -67 -115 -19 0 -16 14 12 70 14 28 32 50 40 50 8 0 15 -2 15 -5z m-4022
-233 l65 -223 -34 -34 c-29 -29 -54 -39 -165 -70 -73 -19 -138 -35 -146 -35
-23 0 -100 393 -96 485 l3 70 105 17 c58 9 127 15 154 15 l49 -2 65 -223z m94
218 c20 -6 47 -23 59 -38 19 -25 21 -34 14 -117 -10 -145 -29 -225 -56 -246
-13 -10 -27 -19 -30 -19 -3 0 -16 35 -28 78 -11 42 -39 138 -61 212 -22 74
-40 136 -40 138 0 7 110 0 142 -8z m1436 -24 c2 -16 -2 -32 -10 -37 -21 -14
-88 -11 -88 4 0 6 -3 22 -6 34 -5 19 -1 22 28 26 62 8 73 4 76 -27z m1408 -24
c1 -18 -2 -34 -5 -36 -10 -7 -122 18 -123 27 0 4 2 20 5 36 l6 28 58 -11 c56
-11 58 -13 59 -44z m-1526 8 c0 -37 -2 -40 -29 -40 -15 0 -49 -3 -73 -6 l-46
-6 -4 36 c-4 40 -1 42 77 49 22 2 48 4 58 5 14 2 17 -6 17 -38z m1898 8 c83
-20 92 -24 92 -45 0 -20 -3 -22 -19 -13 -11 5 -47 16 -81 24 -62 15 -89 13
-307 -20 l-43 -7 0 35 c0 19 3 38 7 41 3 4 63 7 132 7 96 0 148 -5 219 -22z
m863 7 c40 -9 74 -17 76 -19 2 -2 1 -16 -3 -31 -7 -28 -12 -29 -81 -9 -19 5
-26 -1 -45 -41 l-23 -48 29 -21 c16 -11 40 -30 53 -41 l23 -20 -25 -95 c-38
-140 -34 -132 -58 -124 -12 4 -45 25 -73 47 l-51 39 19 51 19 51 -22 48 c-20
42 -20 50 -9 80 31 77 71 148 84 148 8 0 47 -7 87 -15z m1029 -56 c-16 -103
-13 -124 22 -164 29 -34 30 -37 14 -53 -15 -15 -19 -14 -52 19 l-35 36 14 59
c9 32 21 85 27 117 16 78 24 67 10 -14z m-3960 27 c0 -39 -11 -46 -76 -46 -43
0 -44 0 -44 34 0 37 7 41 88 45 30 1 32 -1 32 -33z m-1679 2 c1 -7 2 -38 4
-68 1 -30 5 -75 9 -101 l8 -45 -147 -23 c-81 -12 -149 -21 -151 -19 -5 5 -25
221 -20 225 3 3 243 39 279 42 9 0 18 -5 18 -11z m1503 -4 c3 -9 6 -26 6 -38
0 -21 -7 -24 -69 -35 -111 -18 -111 -18 -111 33 0 44 0 45 38 49 93 9 130 7
136 -9z m1751 -25 l130 -31 105 18 c121 21 218 23 275 6 69 -21 69 -21 55 -96
-13 -69 -19 -74 -60 -51 -15 9 -54 14 -101 15 -75 0 -77 -1 -99 -32 -14 -20
-61 -55 -122 -90 l-100 -58 -63 65 c-66 66 -84 74 -130 53 -33 -15 -33 -30 1
-18 14 6 33 10 43 10 19 0 121 -95 121 -113 0 -10 -159 -107 -175 -107 -3 0
-20 17 -38 38 -17 20 -57 63 -87 95 -44 47 -51 60 -40 68 8 5 30 19 48 30 17
11 32 25 32 31 0 6 -11 3 -25 -6 -14 -9 -36 -23 -50 -32 -24 -16 -27 -15 -45
1 -11 10 -20 22 -20 28 0 5 39 56 88 114 70 84 91 103 107 98 11 -3 78 -19
150 -36z m1544 17 c31 -8 73 -17 95 -21 38 -6 38 -7 33 -42 -4 -19 -9 -38 -12
-41 -3 -3 -29 2 -58 11 -28 8 -78 23 -109 32 -41 11 -56 20 -52 31 2 8 6 21 9
29 5 19 22 19 94 1z m571 -54 c36 -25 69 -48 73 -52 5 -4 -1 -26 -12 -49 l-21
-40 -88 57 -88 57 24 43 c14 25 28 39 35 35 7 -3 41 -26 77 -51z m-3120 26 c7
-19 3 -29 -27 -57 -19 -18 -38 -29 -43 -25 -10 12 -21 89 -13 97 3 4 21 7 40
7 26 0 36 -5 43 -22z m-98 -23 c4 -89 19 -79 -132 -91 -74 -5 -136 -9 -138 -9
-1 1 -3 26 -5 56 l-2 54 100 11 c55 6 117 12 138 13 36 1 37 0 39 -34z m593
-11 l38 -46 -39 -39 c-21 -21 -41 -39 -45 -39 -8 0 -82 100 -77 105 8 8 81 65
83 65 2 0 19 -21 40 -46z m-1435 2 c0 -22 -5 -25 -60 -31 -45 -5 -60 -11 -60
-23 0 -14 69 -252 85 -294 4 -11 -8 -21 -44 -36 -56 -23 -60 -21 -75 41 -7 30
-13 32 -50 18 -24 -10 -25 -9 -79 157 -29 92 -53 168 -51 170 1 3 117 10 307
21 22 1 27 -3 27 -23z m2678 -32 c48 -31 135 -88 194 -127 l106 -71 -77 -155
c-42 -86 -90 -184 -106 -218 l-30 -62 -132 67 c-73 37 -133 71 -133 76 0 5 18
46 41 92 l40 84 65 0 c97 0 77 18 -26 22 -49 1 -94 8 -100 14 -7 7 -2 45 19
130 16 65 32 138 36 162 4 23 9 42 12 42 3 0 44 -25 91 -56z m660 41 c20 -6
22 -11 16 -38 -3 -18 -10 -42 -15 -55 l-9 -23 -37 28 c-21 15 -40 29 -42 30
-3 2 3 19 12 39 12 25 22 34 35 30 9 -2 27 -7 40 -11z m456 -15 c55 -11 101
-22 103 -24 7 -7 -127 -266 -136 -266 -16 0 -155 30 -159 34 -4 5 47 266 55
279 3 4 12 5 21 3 10 -3 62 -15 116 -26z m-3250 -2 c6 -26 25 -312 22 -315 -3
-3 -130 -21 -133 -19 -3 3 -33 285 -33 315 0 28 3 30 43 34 95 8 96 8 101 -15z
m2536 12 c0 -5 -18 -48 -41 -95 l-40 -85 -30 17 c-47 28 -53 39 -39 73 13 31
17 32 67 13 7 -3 22 15 35 41 20 41 48 62 48 36z m-3443 -100 c5 -26 2 -30
-28 -38 -33 -8 -35 -7 -50 27 -34 75 -33 78 8 88 36 9 39 8 51 -20 7 -16 15
-42 19 -57z m747 39 c4 -28 5 -53 3 -55 -1 -2 -28 -6 -59 -10 l-56 -6 -7 52
c-9 62 -1 70 66 70 l46 0 7 -51z m3080 31 c37 -12 66 -27 66 -34 0 -7 -5 -38
-11 -69 -13 -65 -11 -64 -110 -41 -65 15 -70 18 -65 38 4 11 12 45 18 74 6 29
16 52 23 52 7 0 43 -9 79 -20z m-3260 -6 c3 -9 6 -35 6 -59 0 -49 0 -49 -117
-61 l-73 -7 0 61 0 61 48 6 c26 3 54 8 62 9 39 9 68 5 74 -10z m796 -108 c22
-68 22 -70 4 -83 -42 -32 -50 -33 -87 -7 -30 20 -37 31 -37 58 0 18 -3 47 -6
63 -5 26 -1 34 37 61 l43 32 11 -28 c7 -15 22 -58 35 -96z m-1467 53 c18 -53
16 -69 -9 -69 -8 0 -14 -4 -14 -9 0 -6 12 -9 26 -8 22 2 28 -5 45 -48 30 -78
27 -80 -112 -94 -67 -7 -122 -11 -124 -9 -2 3 37 250 41 256 3 5 96 30 115 31
11 1 21 -16 32 -50z m4550 -59 c10 -9 -59 -160 -74 -160 -6 0 -39 15 -72 34
-34 18 -72 38 -84 45 l-23 12 45 89 45 90 78 -51 c42 -29 80 -55 85 -59z
m-4078 44 c4 -31 5 -57 3 -59 -2 -2 -21 -5 -42 -7 l-39 -3 -15 53 c-18 63 -11
72 49 72 l37 0 7 -56z m3590 35 c9 -13 -14 -139 -25 -139 -41 0 -46 19 -29
100 8 38 15 50 29 50 10 0 22 -5 25 -11z m605 -25 c22 -15 40 -32 40 -38 0 -6
-19 -50 -42 -98 l-41 -88 -59 0 c-32 0 -58 4 -58 10 0 10 112 240 118 240 1 0
20 -12 42 -26z m-3345 -6 c2 -7 6 -31 7 -52 3 -35 -1 -41 -30 -59 -29 -17 -35
-18 -55 -4 -18 11 -43 14 -113 10 l-90 -6 -3 51 -2 50 108 7 c59 3 113 8 118
10 23 8 56 4 60 -7z m2273 -102 c-17 -48 -25 -51 -58 -27 l-24 19 29 62 29 61
19 -38 c18 -34 18 -41 5 -77z m-814 22 c4 -35 10 -75 13 -90 l6 -28 -94 0
c-84 0 -98 -3 -131 -25 l-37 -25 -15 22 c-9 12 -16 26 -16 30 0 4 45 32 100
63 55 31 108 69 120 85 33 46 46 38 54 -32z m142 47 c39 -16 39 -18 10 -120
l-12 -40 -54 0 -55 0 -7 60 c-4 33 -10 72 -12 88 -5 27 -5 27 45 27 27 0 66
-7 85 -15z m-2772 -113 c25 -74 31 -103 23 -109 -7 -4 -37 -8 -67 -8 -49 0
-55 2 -58 23 -2 12 1 22 7 22 26 0 31 38 11 96 -11 31 -20 59 -20 60 0 4 64
22 68 19 1 -1 18 -47 36 -103z m710 92 c3 -9 6 -28 6 -44 0 -23 -5 -29 -31
-34 -64 -12 -89 -8 -89 17 0 12 -3 32 -6 44 -7 24 6 30 72 32 30 1 44 -4 48
-15z m-1651 -131 c14 -71 24 -129 23 -130 -5 -6 -325 -57 -329 -53 -6 6 -28
253 -23 258 3 3 255 47 292 51 6 1 22 -53 37 -126z m1477 105 c0 -13 3 -33 6
-44 5 -20 1 -22 -68 -28 -40 -4 -85 -9 -100 -12 -27 -5 -28 -4 -28 39 l0 45
63 10 c109 17 127 15 127 -10z m4058 -84 c-30 -31 -52 -45 -62 -41 -13 5 -11
16 17 76 l32 69 30 -29 30 -29 -47 -46z m-2670 63 l33 -34 -85 -56 c-101 -68
-114 -74 -122 -54 -4 10 18 45 62 96 37 45 70 81 74 81 3 0 21 -15 38 -33z
m1854 1 c93 -18 108 -24 108 -41 0 -17 -5 -19 -32 -13 -18 4 -72 14 -120 23
-74 13 -88 19 -88 34 0 24 1 24 132 -3z m-3452 -28 c0 -37 -2 -40 -29 -40 -21
0 -30 6 -35 23 -13 48 -8 57 29 57 34 0 35 -1 35 -40z m761 -2 c8 -7 21 -26
27 -41 14 -33 14 -33 -78 -42 -36 -3 -82 -9 -102 -12 l-38 -6 0 51 0 51 38 4
c82 8 139 6 153 -5z m60 -35 c-9 -17 -10 -17 -17 1 -4 11 -2 21 7 27 18 11 24
-5 10 -28z m147 -30 c53 -37 99 -68 101 -69 2 -2 -4 -15 -13 -29 -16 -24 -20
-25 -120 -25 l-103 0 -7 31 c-3 17 -6 41 -6 52 0 29 31 107 42 107 5 0 53 -30
106 -67z m95 -3 l-16 -29 -44 31 -44 30 33 18 c32 17 34 17 61 -2 27 -19 27
-20 10 -48z m2372 45 c55 -10 103 -21 107 -24 8 -7 -11 -131 -22 -144 -4 -5
-60 6 -125 24 l-117 33 6 30 c15 73 28 107 39 103 7 -2 57 -12 112 -22z m464
-25 c44 -22 83 -44 86 -51 4 -6 -1 -28 -10 -50 -18 -38 -19 -39 -42 -23 -13 8
-29 14 -35 12 -6 -2 26 -27 71 -55 44 -29 81 -57 81 -63 0 -6 -7 -24 -15 -40
l-15 -30 -94 68 c-70 51 -107 71 -149 81 l-55 12 18 43 c24 52 70 136 76 136
2 0 40 -18 83 -40z m-3499 -19 l0 -50 -55 -6 c-31 -4 -58 -6 -60 -4 -2 2 -5
24 -6 49 -3 40 -1 45 21 51 14 4 42 7 63 8 l37 1 0 -49z m1315 -32 c33 -38 61
-73 63 -78 2 -7 -190 -101 -209 -101 -5 0 -9 12 -9 28 0 15 -11 54 -24 87
l-25 59 62 41 c34 23 67 40 72 37 6 -2 37 -35 70 -73z m1437 -37 c111 -84 304
-225 326 -238 6 -3 -93 -194 -100 -194 -5 0 -17 9 -28 20 -11 11 -20 17 -20
14 0 -3 -8 4 -19 17 l-19 23 -23 -44 c-13 -25 -31 -62 -41 -82 -9 -21 -22 -38
-28 -38 -20 0 -410 201 -410 211 0 21 199 419 209 419 6 0 75 -49 153 -108z
m-2927 52 c3 -25 5 -47 3 -49 -7 -8 -190 -27 -196 -21 -3 4 -6 28 -6 54 l-1
47 50 6 c28 3 71 7 96 7 l47 2 7 -46z m953 -23 c34 -24 62 -49 62 -56 0 -17
-52 -63 -80 -70 -36 -9 -320 -32 -325 -26 -3 2 -5 15 -5 28 0 23 2 23 104 23
104 0 104 0 130 31 30 35 31 42 11 59 -13 11 -13 16 2 41 10 16 21 25 28 21 6
-4 39 -27 73 -51z m-1168 -1 c0 -62 -21 -68 -38 -11 -17 54 -15 61 13 61 23 0
25 -3 25 -50z m3662 39 c29 -6 59 -12 65 -14 9 -3 3 -25 -20 -72 -47 -99 -39
-93 -102 -74 -31 9 -57 18 -58 21 0 3 5 38 12 78 14 81 12 80 103 61z m-1642
-33 c7 -13 39 -44 71 -67 33 -24 58 -47 56 -53 -2 -5 -39 -32 -82 -59 -102
-63 -121 -60 -188 23 -26 33 -50 66 -53 73 -4 12 146 106 172 107 6 0 16 -11
24 -24z m-1226 -8 c3 -13 6 -35 6 -50 0 -31 -9 -34 -142 -44 l-88 -6 0 49 0
50 93 10 c50 6 99 11 108 11 10 1 19 -8 23 -20z m1343 -14 c-8 -47 -10 -49
-42 -28 l-27 18 26 23 c39 33 50 29 43 -13z m163 28 c0 -24 -44 -132 -53 -132
-25 0 -85 21 -95 33 -7 8 -7 27 0 60 l10 47 69 0 c38 0 69 -4 69 -8z m120 -4
c0 -7 -10 -46 -21 -85 -24 -79 -26 -81 -91 -63 l-37 11 26 74 27 75 48 0 c32
0 48 -4 48 -12z m-2862 -82 c7 -43 11 -80 10 -81 -2 -2 -23 -5 -48 -7 l-45 -3
-3 74 c-4 94 0 103 40 99 32 -3 33 -3 46 -82z m2980 68 c2 -1 -14 -42 -37 -89
-25 -54 -46 -85 -53 -82 -16 5 -13 32 13 118 20 66 22 69 47 63 15 -4 29 -8
30 -10z m-3078 -78 l0 -84 -52 -6 c-29 -4 -71 -9 -92 -13 -37 -5 -39 -4 -32
18 3 13 11 53 18 88 14 72 23 79 106 80 l52 1 0 -84z m358 47 c9 -29 9 -39 -1
-45 -23 -15 -36 -8 -47 28 -10 30 -10 38 1 45 25 16 36 9 47 -28z m4302 32 c0
-13 -65 -135 -72 -135 -5 0 -26 12 -48 26 l-39 26 22 44 21 44 58 0 c32 0 58
-2 58 -5z m-3568 -49 c4 -51 -3 -56 -84 -56 l-48 0 0 35 c0 19 0 38 0 43 -1 7
52 18 101 21 25 1 27 -2 31 -43z m868 4 c3 0 16 9 28 21 13 11 28 19 33 17 17
-6 49 -98 49 -140 0 -32 -4 -39 -25 -44 -15 -4 -45 1 -71 11 -61 23 -67 12 -8
-15 31 -13 58 -19 76 -15 27 6 28 6 28 -39 0 -24 -4 -47 -9 -50 -5 -3 -48 6
-96 21 -78 24 -91 32 -121 71 -19 25 -34 49 -34 54 0 5 28 41 62 79 57 64 64
68 72 49 5 -11 12 -20 16 -20z m-2218 -75 c-14 -68 -20 -80 -37 -80 -16 0 -22
10 -29 52 l-9 53 44 39 c24 21 45 34 46 28 2 -7 -5 -48 -15 -92z m518 46 c10
-35 8 -37 -87 -66 -48 -14 -46 -16 -58 62 l-7 42 64 3 c35 2 66 0 71 -3 4 -3
12 -20 17 -38z m682 8 c2 -22 2 -42 -1 -45 -2 -2 -31 -4 -63 -4 l-58 0 0 39
c0 44 6 48 76 50 42 1 42 1 46 -40z m2980 -4 c67 -19 122 -36 124 -37 1 -2 -2
-25 -8 -51 l-10 -47 -26 16 c-43 25 -216 154 -208 154 4 0 62 -16 128 -35z
m-3422 15 c0 -5 9 -10 20 -10 15 0 20 -7 20 -29 0 -16 3 -36 6 -45 8 -20 -33
-30 -91 -22 -41 7 -45 10 -54 44 -6 20 -9 37 -8 37 11 7 85 34 95 34 6 1 12
-3 12 -9z m264 -22 c3 -18 7 -51 10 -74 l6 -41 -62 -7 c-113 -11 -134 -9 -146
19 -7 14 -12 46 -12 70 0 42 2 44 33 49 50 9 89 13 129 15 35 1 37 -1 42 -31z
m-379 -45 c11 -47 23 -53 97 -53 53 0 70 -4 75 -15 3 -9 4 -17 2 -19 -2 -2
-47 -7 -100 -11 l-95 -7 -17 59 c-15 53 -15 59 0 70 20 16 29 10 38 -24z
m1989 -20 c25 -32 46 -60 46 -63 0 -3 -28 -13 -62 -23 -57 -17 -74 -29 -183
-133 -66 -63 -124 -113 -128 -111 -5 1 -16 14 -24 28 -15 24 -14 28 26 93 33
54 41 78 41 115 l0 47 113 51 c61 28 115 51 119 52 3 0 27 -25 52 -56z m-3077
32 c3 -9 3 -18 0 -22 -7 -7 -329 -95 -332 -91 -1 2 -5 18 -8 36 -5 22 -3 34 6
37 20 8 270 53 300 54 16 1 30 -5 34 -14z m2051 -16 c3 -26 2 -26 -80 -32
-135 -11 -145 -10 -151 15 -4 12 -4 24 -2 26 6 6 154 20 195 18 30 -1 35 -5
38 -27z m2970 19 c30 -7 78 -35 134 -77 l87 -65 -25 -49 c-18 -34 -29 -46 -37
-39 -7 5 -67 50 -134 101 -68 51 -123 95 -123 98 0 2 5 13 10 24 12 22 24 23
88 7z m-4664 -20 c3 -13 7 -35 10 -50 7 -32 5 -34 -64 -42 -49 -6 -60 -3 -108
25 -30 17 -52 33 -49 35 6 7 168 52 189 53 11 1 19 -8 22 -21z m1446 -18 l0
-30 -64 0 c-60 0 -64 2 -68 24 -5 22 -1 25 31 29 98 10 101 9 101 -23z m1719
1 c41 -11 76 -23 79 -26 5 -5 -72 -159 -145 -293 -28 -51 -38 -60 -49 -51 -8
6 -12 14 -10 18 27 46 146 270 146 274 0 2 -22 18 -49 35 l-50 31 -40 -30
c-46 -32 -63 -36 -80 -15 -10 12 -3 21 41 49 29 20 60 34 68 32 8 -2 48 -13
89 -24z m1330 9 c23 -6 41 -15 41 -20 0 -18 -23 -60 -34 -60 -14 0 -86 51 -86
61 0 20 14 40 26 35 7 -3 31 -10 53 -16z m-3856 -42 c9 -29 15 -53 14 -54 -1
-1 -91 -11 -201 -24 -109 -12 -220 -25 -247 -29 l-49 -8 0 39 c0 51 9 54 197
73 92 9 170 22 200 34 26 10 53 19 59 20 5 1 18 -22 27 -51z m657 22 l0 -30
-60 0 c-57 0 -60 1 -60 24 0 22 5 25 43 29 23 2 50 4 60 5 13 2 17 -5 17 -28z
m3517 -206 c2 -7 -1 -22 -9 -32 -13 -19 -19 -16 -137 64 -68 46 -129 88 -134
93 -8 8 -6 22 6 46 l16 35 126 -96 c70 -53 129 -102 132 -110z m-4937 125 c66
-39 119 -73 118 -75 -3 -2 -233 -54 -243 -54 -1 0 -10 41 -20 91 -15 77 -16
92 -4 100 8 5 17 9 21 9 4 0 62 -32 128 -71z m2350 -51 c46 -62 88 -118 93
-125 10 -14 -30 -93 -48 -93 -6 0 -31 13 -56 28 -40 26 -47 37 -78 121 -20 54
-41 96 -52 102 -29 15 -23 44 14 61 17 8 35 16 38 17 3 0 43 -50 89 -111z
m2923 -12 c48 -32 87 -64 87 -71 0 -27 -34 -86 -47 -81 -11 5 -237 168 -257
187 -6 5 -2 24 9 48 l18 40 51 -33 c28 -18 90 -59 139 -90z m-2015 94 l32 -20
-20 -40 c-11 -22 -24 -40 -28 -40 -4 0 -29 17 -56 36 l-49 36 29 24 c36 29 50
29 92 4z m1322 -6 c43 -28 44 -31 31 -53 -14 -22 -81 23 -81 55 0 30 2 30 50
-2z m-4778 -74 c9 -47 17 -88 18 -92 0 -3 -15 -11 -33 -17 -19 -7 -55 -25 -81
-41 l-47 -30 -40 32 c-44 35 -43 30 -13 133 19 67 21 69 84 88 89 26 92 24
112 -73z m3351 21 c42 -30 77 -59 77 -64 0 -13 -73 -147 -80 -147 -6 0 -190
235 -190 243 0 3 8 3 18 1 9 -3 31 4 47 14 17 11 35 17 41 13 5 -3 45 -30 87
-60z m436 -13 l158 -82 -39 -90 c-22 -50 -43 -95 -48 -99 -4 -5 -17 -4 -28 2
-21 11 -21 12 8 77 17 36 30 69 30 73 0 9 -212 101 -232 101 -8 0 -37 -47 -66
-105 l-52 -106 35 -20 c19 -12 35 -23 35 -25 0 -16 -31 -74 -39 -74 -17 0
-122 54 -119 61 11 25 194 369 196 369 2 0 75 -37 161 -82z m-1413 28 c-7 -30
-16 -33 -134 -41 l-93 -7 3 33 3 34 90 7 c50 4 97 9 105 11 23 5 33 -9 26 -37z
m-1986 2 c0 -51 -16 -66 -23 -22 -6 39 -3 54 14 54 5 0 9 -15 9 -32z m-39 -21
c7 -43 4 -43 -63 0 l-43 28 35 6 c56 11 64 7 71 -34z m2771 26 c27 -25 22 -39
-27 -73 -25 -17 -45 -35 -45 -40 0 -25 25 -100 33 -100 5 0 6 10 3 23 -20 70
-19 73 22 105 22 18 44 32 49 32 5 0 26 -23 47 -51 l38 -51 -24 -26 c-12 -14
-42 -47 -64 -72 -23 -25 -54 -60 -70 -79 -34 -41 -31 -44 -117 126 l-62 122
30 31 c18 19 52 38 90 49 76 24 75 24 97 4z m-992 -27 c0 -38 29 -32 -278 -62
-201 -20 -202 -20 -202 39 0 25 3 27 43 28 23 0 110 6 192 13 83 7 171 14 198
15 l47 1 0 -34z m-2373 0 c-19 -48 -28 -106 -24 -141 4 -30 -2 -58 -23 -110
-34 -83 -33 -83 -165 -32 -50 19 -97 37 -107 40 -15 5 -14 13 8 83 14 42 29
84 33 93 5 8 59 28 127 47 137 37 158 40 151 20z m5218 -71 c63 -41 117 -80
121 -86 3 -6 0 -18 -9 -26 -13 -13 -29 -5 -141 72 -69 47 -126 88 -126 90 0
18 15 35 27 31 8 -4 66 -40 128 -81z m-3335 19 c0 -31 -1 -32 -56 -39 -31 -4
-57 -5 -59 -3 -1 2 -6 22 -10 45 l-7 42 59 3 c64 3 73 -2 73 -48z m803 -31
c15 -42 25 -78 23 -80 -4 -4 -126 67 -126 74 0 7 32 67 42 80 18 22 33 3 61
-74z m210 51 c31 -10 57 -22 57 -26 0 -5 -11 -25 -24 -44 l-24 -35 -46 60
c-48 62 -55 77 -33 68 6 -2 38 -13 70 -23z m2620 4 c18 -12 34 -25 37 -28 3
-3 42 -32 87 -64 120 -85 118 -83 91 -144 l-23 -51 -100 76 c-55 42 -118 91
-140 109 l-40 33 24 46 c13 25 26 45 28 45 3 0 19 -10 36 -22z m-3813 -23 c0
-19 1 -38 3 -42 1 -5 -20 -10 -46 -14 -48 -5 -49 -5 -78 37 l-29 43 27 4 c16
2 49 5 76 6 l47 1 0 -35z m-140 -20 l31 -46 -97 -45 c-137 -63 -132 -64 -161
30 -13 43 -22 80 -20 82 4 5 135 20 189 23 22 1 33 -8 58 -44z m1030 42 c0 -2
-12 -26 -27 -53 -18 -32 -35 -49 -48 -50 -11 0 -59 -4 -107 -8 l-88 -7 0 45
c0 30 4 46 13 47 6 0 59 7 117 14 127 15 140 16 140 12z m1401 -58 c54 -23 99
-43 99 -45 0 -1 -12 -30 -27 -64 -19 -46 -30 -59 -42 -55 -8 3 -55 31 -102 62
l-87 56 21 43 c11 24 25 44 30 44 4 0 53 -19 108 -41z m-2692 -121 l50 -153
-27 -6 c-68 -17 -373 -41 -385 -31 -7 6 -36 45 -65 86 l-53 76 75 0 76 0 0 79
0 79 88 9 c48 6 110 11 139 12 l52 1 50 -152z m1001 108 c0 -52 1 -51 -141
-61 l-97 -7 -4 38 c-3 22 -3 41 -1 44 4 4 161 24 226 29 14 1 17 -7 17 -43z
m923 -145 c48 -92 87 -173 87 -178 0 -6 -33 -30 -73 -55 l-73 -45 -113 129
-114 130 94 94 c51 52 96 94 99 94 3 0 45 -76 93 -169z m-2271 89 l0 -65 -67
-3 c-52 -2 -72 1 -86 14 -27 24 -24 32 14 36 27 3 35 10 51 46 18 40 22 43 54
40 l34 -3 0 -65z m1088 35 c0 -19 0 -38 0 -42 0 -5 -29 -10 -64 -13 l-65 -5
-5 29 c-10 51 -8 55 37 59 102 9 97 10 97 -28z m-1191 -4 c-8 -23 -17 -30 -45
-33 -29 -3 -39 1 -56 21 l-20 26 34 6 c18 4 47 7 65 8 31 1 32 0 22 -28z
m3591 -146 c-11 -25 -29 -65 -40 -90 -10 -25 -25 -45 -32 -45 -11 0 -235 96
-247 106 -4 4 20 66 56 146 l26 57 128 -65 128 -64 -19 -45z m-2552 123 c3
-36 2 -38 -26 -38 -16 0 -43 -3 -60 -6 -28 -6 -30 -4 -34 32 -6 48 3 55 67 52
l50 -3 3 -37z m-178 -8 c0 -47 -13 -51 -52 -13 -41 39 -38 42 40 52 8 0 12
-13 12 -39z m1000 -32 c88 -49 132 -79 140 -97 11 -24 7 -30 -93 -128 l-105
-103 -37 16 c-84 35 -205 93 -205 98 0 15 153 286 161 286 5 0 68 -32 139 -72z
m-2026 43 c13 -14 16 -28 11 -49 -5 -26 -12 -31 -50 -36 -42 -7 -44 -9 -61
-59 -9 -29 -18 -55 -20 -59 -5 -8 -154 52 -154 62 0 5 41 42 91 84 78 65 96
76 128 76 25 0 44 -7 55 -19z m980 -57 c43 -48 58 -73 60 -96 l1 -32 -159 -16
c-107 -11 -159 -12 -162 -5 -22 60 -34 99 -34 106 0 5 28 21 62 36 34 16 83
38 108 50 25 12 50 22 55 22 6 0 36 -29 69 -65z m-1183 8 c-30 -26 -75 -66
-100 -89 -44 -40 -46 -41 -53 -20 -3 12 -6 43 -7 69 l-1 47 78 16 c42 9 82 18
87 20 6 2 19 4 30 4 15 0 6 -12 -34 -47z m2039 40 c0 -4 -15 -32 -32 -62 l-33
-54 -65 -1 -65 0 -3 52 c-3 52 -3 52 30 57 18 3 53 7 78 9 25 2 55 4 68 5 12
1 22 -2 22 -6z m1016 -42 c19 -23 34 -46 34 -51 0 -16 -23 -59 -32 -59 -5 0
-34 19 -64 42 l-55 41 31 32 c17 17 28 34 24 37 -3 4 2 5 11 4 9 -1 32 -22 51
-46z m1244 15 l33 -34 -36 -56 c-21 -30 -41 -55 -45 -55 -4 1 -21 9 -39 18
l-32 17 34 73 c19 39 38 72 42 72 5 0 24 -16 43 -35z m-854 -32 c52 -32 94
-63 94 -69 0 -10 -57 -144 -65 -153 -4 -3 -145 60 -145 65 0 2 10 24 22 50 20
39 21 47 8 54 -53 31 -56 36 -37 74 9 20 20 36 23 36 4 0 49 -26 100 -57z
m-1626 -6 l0 -54 -107 -10 c-60 -6 -111 -9 -115 -6 -5 2 -8 26 -8 53 l0 49 53
5 c28 3 66 8 82 9 17 2 45 5 63 6 l32 1 0 -53z m640 -2 c0 -6 -16 -26 -34 -44
l-35 -34 -6 26 c-5 18 0 37 15 62 21 34 23 35 41 19 11 -9 19 -22 19 -29z
m-2897 1 l38 -34 -15 -57 c-8 -31 -17 -59 -19 -61 -5 -5 -87 25 -101 37 -8 7
43 149 54 149 3 -1 22 -16 43 -34z m2010 -18 c4 -28 5 -53 3 -55 -2 -2 -33 -6
-70 -10 -66 -6 -66 -6 -66 19 0 14 -3 39 -6 56 -6 30 -5 31 37 35 104 9 96 13
102 -45z m-1283 -33 c-1 -5 -27 -77 -59 -160 -58 -146 -60 -150 -88 -148 -15
1 -33 10 -40 19 -7 10 -14 16 -17 13 -2 -2 -25 -62 -51 -132 -26 -70 -53 -126
-58 -124 -35 11 -29 37 64 293 l94 259 32 3 31 3 -54 -142 c-30 -78 -52 -145
-49 -147 8 -8 10 -4 76 172 l63 169 28 -34 c15 -18 28 -38 28 -44z m1131 13
c2 -26 1 -49 -2 -51 -9 -8 -109 -16 -113 -9 -2 4 -6 30 -7 57 l-4 50 55 5 c30
3 58 3 62 0 4 -3 8 -26 9 -52z m-1602 -79 c7 -72 11 -132 9 -134 -1 -2 -41
-21 -87 -44 -81 -39 -97 -41 -129 -16 -1 1 13 49 31 106 19 57 38 120 43 139
7 28 19 40 54 58 24 12 49 22 55 22 7 0 16 -50 24 -131z m1421 111 c0 -5 -2
-10 -4 -10 -3 0 -8 5 -11 10 -3 6 -1 10 4 10 6 0 11 -4 11 -10z m1751 -56 c57
-43 59 -47 46 -67 -13 -20 -137 -67 -174 -67 -7 0 -20 14 -28 31 l-16 30 53
59 c29 32 54 59 56 59 2 1 30 -20 63 -45z m1129 -14 l120 -60 -39 -58 c-22
-31 -48 -67 -58 -80 l-19 -23 -106 48 -106 47 25 56 c13 30 32 72 40 93 8 20
17 37 19 37 2 0 58 -27 124 -60z m-1075 -165 c-48 -91 -88 -165 -90 -163 -1 2
-23 44 -49 95 l-46 92 33 10 c17 5 58 17 89 26 56 15 59 18 89 77 27 54 32 59
46 45 14 -13 6 -32 -72 -182z m-481 50 l105 -120 -37 -22 c-20 -13 -39 -23
-42 -23 -6 0 -159 222 -174 252 -7 14 -4 22 10 33 10 7 22 11 26 7 4 -4 54
-61 112 -127z m-3145 70 c160 -56 154 -48 108 -144 l-22 -46 -154 -12 c-85 -7
-156 -11 -158 -9 -6 6 71 266 78 264 4 -2 70 -25 148 -53z m2526 5 c-14 -28
-36 -55 -48 -59 -13 -5 -82 -12 -153 -16 l-131 -7 -7 32 c-15 78 -16 77 92 87
53 6 136 11 185 12 l87 1 -25 -50z m1680 25 c30 -14 55 -28 55 -31 0 -17 -71
-154 -80 -154 -11 0 -110 48 -110 54 0 8 71 156 75 156 2 0 29 -11 60 -25z
m-3299 -2 c7 -10 34 -47 59 -83 l45 -65 -28 -75 c-16 -41 -31 -82 -35 -92 -5
-15 -13 -14 -88 8 -45 13 -84 26 -87 28 -3 4 16 58 99 274 10 27 18 28 35 5z
m-333 -24 c75 -31 85 -40 68 -67 -6 -11 -26 -7 -96 17 -110 39 -110 39 -89 62
22 25 26 24 117 -12z m1591 -10 c15 -77 13 -79 -63 -79 l-69 0 -4 50 c-3 55
-3 55 88 59 39 1 42 -1 48 -30z m-151 -26 c3 -27 3 -51 0 -55 -2 -5 -28 -8
-58 -8 -58 0 -65 7 -65 65 0 33 1 34 48 38 26 2 52 4 58 5 7 1 14 -19 17 -45z
m1050 -83 c49 -72 86 -133 83 -138 -2 -4 -25 -18 -49 -31 l-45 -25 -94 42
c-51 22 -115 51 -142 62 l-49 22 99 99 c54 54 101 99 104 99 3 0 45 -59 93
-130z m841 53 l134 -67 -24 -54 c-21 -47 -23 -60 -13 -94 9 -34 7 -48 -11 -94
-12 -30 -24 -54 -26 -54 -3 0 -38 14 -79 31 l-74 31 -12 57 c-7 33 -30 84 -56
124 -24 37 -43 72 -43 78 0 18 50 109 60 109 5 0 70 -30 144 -67z m-2070 35
c3 -13 6 -35 6 -50 0 -26 0 -26 -97 -33 -54 -4 -122 -8 -152 -9 l-55 -1 -12
43 c-12 40 -12 42 9 43 12 0 74 6 137 13 163 19 157 19 164 -6z m2583 -39 l52
-24 -34 -75 c-20 -46 -38 -74 -47 -72 -34 7 -178 66 -178 73 0 4 15 42 34 83
l35 76 43 -19 c24 -10 66 -29 95 -42z m-3794 -29 c6 -5 -16 -75 -28 -88 -1 -2
-37 14 -79 35 l-76 37 0 43 0 42 88 -31 c48 -17 90 -34 95 -38z m4246 46 c10
-12 3 -31 -35 -98 -25 -46 -48 -85 -50 -87 -2 -3 -15 6 -28 18 l-24 22 54 72
c30 40 54 75 54 79 0 13 17 9 29 -6z m-3380 -98 c19 -57 36 -108 38 -115 3 -7
-45 -28 -134 -56 -76 -25 -139 -44 -139 -43 -49 60 -193 271 -189 275 6 6 288
37 355 40 l36 1 33 -102z m3528 -15 c63 -48 117 -91 120 -96 6 -11 -118 -257
-130 -257 -4 0 -59 35 -122 77 -88 58 -114 80 -109 92 4 9 10 34 13 56 5 34
97 215 109 215 2 0 56 -39 119 -87z m-432 22 c33 -15 71 -31 84 -36 l24 -10
-24 -25 c-32 -35 -91 -64 -129 -64 -37 0 -120 20 -120 29 0 3 14 38 31 78 36
80 23 78 134 28z m-1108 -65 l52 -99 -44 -83 c-24 -46 -51 -85 -61 -86 -14 -3
-15 1 -10 23 19 77 19 77 -39 139 -30 32 -55 61 -55 64 0 3 -10 16 -22 30 -20
20 -21 25 -8 32 8 5 40 25 70 44 30 19 57 35 60 35 3 0 28 -44 57 -99z m-1047
80 c0 -5 -15 -39 -32 -75 -28 -56 -36 -65 -53 -59 -11 3 -47 9 -80 13 l-60 6
-3 52 -3 51 53 6 c29 4 73 8 98 9 25 2 53 4 63 5 9 1 17 -2 17 -8z m175 -45
l98 -46 -33 -34 -33 -34 -87 47 -87 47 15 32 c9 18 19 33 23 33 3 0 51 -20
104 -45z m1123 -18 c23 -34 47 -86 53 -114 11 -46 10 -57 -6 -93 -10 -22 -19
-40 -21 -40 -2 0 -39 16 -83 35 -78 34 -115 44 -95 26 5 -5 45 -24 89 -42 44
-17 81 -33 83 -34 6 -5 -59 -135 -68 -135 -18 0 -185 79 -185 87 0 7 188 373
191 373 1 0 20 -28 42 -63z m-3255 42 c12 -7 24 -13 26 -15 10 -9 -55 -194
-68 -194 -10 0 -12 9 -7 38 3 20 9 70 13 110 3 39 8 72 10 72 2 0 14 -5 26
-11z m636 -107 c45 -62 85 -120 88 -128 5 -13 -21 -43 -38 -44 -4 0 -10 16
-13 35 -6 30 -12 36 -49 45 -93 25 -122 34 -130 40 -4 4 4 38 18 76 14 38 28
75 31 83 2 8 6 12 8 10 2 -2 40 -55 85 -117z m1072 101 c0 -10 6 -68 13 -129
l12 -112 -65 -10 c-36 -6 -66 -10 -67 -9 -2 1 -8 43 -13 92 -6 50 -13 109 -16
132 l-6 42 38 4 c89 9 103 8 104 -10z m1962 -23 c32 -15 33 -22 8 -76 -11 -25
-33 -50 -56 -64 -26 -16 -45 -39 -61 -77 -22 -50 -36 -63 -48 -45 -3 5 6 31
19 59 20 44 22 57 13 96 -8 38 -6 53 12 96 l22 50 32 -13 c17 -7 43 -19 59
-26z m-2104 -104 c11 -101 11 -130 1 -136 -14 -8 -121 -23 -127 -17 -2 3 -8
44 -13 93 -5 49 -12 110 -15 136 l-6 47 48 4 c105 9 96 19 112 -127z m-1633
78 c-3 -26 -6 -56 -6 -68 -1 -48 -14 -49 -78 -5 -34 24 -62 45 -62 48 0 6 129
69 144 70 5 1 6 -20 2 -45z m1470 -74 c7 -63 11 -116 10 -117 -2 -3 -205 -23
-231 -23 -21 0 -27 12 -60 116 -20 64 -35 117 -33 119 4 4 257 23 283 21 18
-1 21 -12 31 -116z m-1317 89 c18 -6 30 -16 28 -23 -2 -6 -19 -55 -38 -108
-19 -54 -38 -98 -43 -98 -14 0 -46 31 -46 44 0 9 30 108 55 184 5 15 4 15 44
1z m3823 -101 c-4 -13 -112 -261 -117 -266 -3 -3 -218 89 -229 99 -18 16 33
104 74 129 27 17 44 38 59 75 l22 53 97 -39 c60 -24 96 -43 94 -51z m-1043 -8
c77 -86 80 -91 69 -117 -6 -16 -15 -32 -19 -36 -7 -9 -309 121 -309 132 1 5
167 108 177 111 1 0 38 -40 82 -90z m1434 -7 c-18 -63 -165 -393 -175 -393 -5
0 -67 25 -138 55 -71 30 -134 55 -140 55 -26 0 -17 36 39 161 48 107 64 133
78 131 10 -2 50 -6 89 -9 l70 -5 65 50 64 49 30 -28 c27 -27 29 -31 18 -66z
m-2225 46 c67 -37 72 -42 59 -57 -8 -9 -18 -27 -21 -39 -7 -22 -8 -22 -91 19
l-84 42 20 38 c11 21 25 38 32 38 6 0 45 -19 85 -41z m327 -35 c72 -31 132
-59 135 -61 6 -5 -83 -182 -91 -183 -3 0 -76 34 -163 75 -113 54 -156 79 -156
92 0 21 120 145 135 139 6 -2 69 -30 140 -62z m-2166 40 c17 -4 31 -10 31 -15
0 -5 -23 -70 -52 -145 l-51 -135 -30 30 -30 30 44 120 c24 66 47 121 50 121 4
0 21 -3 38 -6z m1610 -15 c17 -6 31 -14 31 -17 0 -17 -104 -241 -110 -237 -4
2 -10 38 -13 78 -4 41 -10 100 -13 131 l-7 56 40 0 c22 0 54 -5 72 -11z
m-2091 -52 c74 -48 167 -120 224 -175 29 -27 35 -39 27 -49 -17 -20 -22 -17
-91 39 -65 54 -227 187 -242 199 -8 7 0 29 10 29 3 0 36 -19 72 -43z m651 17
c28 -8 51 -19 51 -24 0 -14 -70 -204 -79 -213 -11 -11 -161 61 -161 78 0 13
54 158 67 178 6 10 47 4 122 -19z m4329 -5 c23 -17 42 -33 42 -35 0 -13 -135
-244 -143 -244 -7 0 -53 28 -77 47 -5 5 122 262 131 263 3 0 24 -14 47 -31z
m-2715 -45 c39 -20 74 -38 76 -40 4 -4 -80 -257 -89 -268 -9 -9 -190 73 -190
87 0 8 24 63 90 210 11 26 25 47 31 47 5 0 42 -16 82 -36z m-2206 -91 c80 -65
147 -123 150 -130 4 -11 -47 -112 -79 -156 -12 -17 -16 -16 -78 4 -36 12 -67
23 -69 25 -2 2 8 31 23 65 31 72 34 66 -74 150 -38 30 -70 57 -70 61 0 13 39
98 46 98 4 0 72 -53 151 -117z m782 88 c49 -15 56 -20 64 -51 8 -33 7 -37 -40
-77 -26 -24 -53 -43 -59 -43 -6 0 -17 11 -24 25 -10 18 -24 26 -57 31 -24 3
-45 9 -47 13 -2 3 7 34 21 69 29 71 22 70 142 33z m522 -112 c22 -72 37 -135
32 -139 -4 -5 -39 -20 -78 -34 l-70 -25 -17 22 c-10 12 -38 52 -64 88 -36 53
-44 71 -36 85 5 11 7 33 5 51 l-5 32 78 25 c44 13 87 25 96 25 14 1 26 -27 59
-130z m3736 71 c29 -23 53 -42 53 -45 0 -12 -136 -218 -146 -222 -12 -4 -104
52 -104 64 0 9 133 243 138 243 3 0 29 -18 59 -40z m-2224 3 c30 -15 30 -9
-11 -90 -18 -35 -27 -36 -84 -6 -32 16 -34 23 -12 66 32 63 39 65 107 30z
m1897 -149 c0 -5 -55 -108 -65 -122 -5 -6 -246 119 -243 127 2 4 18 41 37 83
l34 76 118 -79 c66 -44 119 -82 119 -85z m-1102 126 c28 -13 52 -27 52 -33 0
-16 -53 -131 -65 -139 -16 -12 -23 3 -44 99 -25 109 -24 107 -8 100 6 -3 36
-15 65 -27z m-2552 -6 c10 -40 -10 -50 -35 -18 -21 27 -21 29 -4 35 29 12 32
10 39 -17z m2466 -9 c5 -26 1 -29 -26 -19 -12 5 -13 10 -4 30 13 28 24 24 30
-11z m-1057 -47 c82 -40 152 -74 155 -76 5 -3 -58 -130 -69 -136 -4 -3 -24 -1
-44 4 -32 7 -54 1 -167 -46 -110 -46 -170 -64 -170 -51 0 7 119 357 125 367 3
5 9 10 13 10 3 0 74 -32 157 -72z m-861 16 c12 -94 16 -89 -81 -102 -49 -6
-96 -12 -107 -14 -15 -2 -23 10 -42 66 -13 38 -22 71 -20 74 6 5 136 19 197
21 l46 1 7 -46z m320 -6 c10 -84 7 -125 -10 -168 -19 -46 -19 -47 -165 -55
l-106 -6 -12 117 c-6 64 -10 118 -8 120 5 5 106 24 128 24 15 0 19 -8 19 -39
0 -22 5 -43 11 -47 7 -4 10 9 7 42 -3 49 -3 49 32 55 19 4 49 7 66 8 30 1 31
0 38 -51z m979 36 c18 -9 33 -18 35 -19 3 -3 -45 -104 -53 -113 -2 -2 -21 6
-44 17 l-41 21 27 55 c15 30 31 55 36 55 4 0 22 -7 40 -16z m-1903 -76 c0 -8
-36 4 -72 23 -19 10 -19 11 -1 31 18 20 18 20 45 -13 16 -18 28 -37 28 -41z
m-1171 35 c19 -15 42 -34 51 -43 8 -8 28 -25 44 -36 l30 -21 -25 -57 c-13 -30
-28 -56 -34 -56 -16 0 -169 52 -179 61 -8 7 62 179 73 179 2 0 20 -12 40 -27z
m3881 11 c0 -1 -16 -38 -35 -80 -33 -73 -34 -78 -19 -96 14 -15 15 -23 6 -43
l-11 -25 -48 21 c-26 11 -49 22 -51 23 -9 10 24 56 40 56 15 0 29 20 55 79 24
55 40 78 49 74 8 -3 14 -7 14 -9z m-592 -69 c5 -5 -83 -195 -91 -195 -20 0
-157 70 -157 80 0 6 20 51 45 100 l45 89 77 -35 c43 -20 79 -37 81 -39z m2086
9 l75 -57 -57 -81 c-31 -45 -66 -95 -78 -110 l-21 -29 -76 52 c-42 29 -79 56
-81 59 -8 13 137 233 150 228 7 -3 46 -30 88 -62z m-1675 41 c2 -2 9 -29 17
-61 9 -41 10 -62 2 -80 -14 -30 -20 -30 -86 1 l-52 24 19 38 c11 21 25 51 31
67 9 24 14 27 38 21 15 -4 29 -8 31 -10z m-2821 -34 l22 -26 -37 -33 c-62 -54
-66 -54 -92 -17 -20 30 -21 37 -10 74 12 41 12 41 53 35 27 -4 49 -15 64 -33z
m3142 -7 c58 -25 107 -48 109 -50 6 -5 -29 -93 -39 -99 -5 -3 -34 6 -66 21
-50 23 -61 25 -100 15 -53 -14 -55 -14 -78 4 -19 15 -19 17 14 85 19 39 39 70
45 70 6 0 58 -21 115 -46z m-2892 6 c28 -13 52 -26 52 -31 0 -4 -39 -90 -86
-191 -47 -101 -102 -218 -121 -260 -20 -43 -41 -78 -46 -78 -23 0 -79 45 -110
88 -19 26 -54 82 -77 125 -42 77 -42 79 -24 97 52 51 340 279 349 276 6 -3 34
-14 63 -26z m-473 -15 c61 -28 86 -45 104 -72 23 -36 23 -36 3 -52 -11 -9 -37
-30 -59 -48 -36 -29 -40 -30 -50 -14 -6 10 -36 48 -68 84 -55 66 -56 68 -45
102 6 19 17 35 23 35 7 0 48 -16 92 -35z m2253 15 l43 -19 -16 -31 -16 -30
-36 15 c-56 24 -64 33 -51 61 13 29 20 29 76 4z m-2529 -435 c-31 -386 -32
-394 -75 -453 -1 -2 -65 38 -143 89 -124 81 -139 94 -128 108 15 17 145 180
158 196 4 6 17 65 29 132 19 112 25 129 72 210 63 105 86 130 105 111 10 -11
7 -81 -18 -393z m2627 389 c35 -17 41 -32 24 -65 -11 -19 -11 -19 -50 1 -45
23 -44 20 -28 55 13 30 11 29 54 9z m-1697 -135 c39 -53 71 -102 71 -108 0 -6
-12 -17 -27 -24 -25 -13 -40 -11 -140 16 -62 16 -113 34 -113 38 0 5 23 57 51
116 l51 108 18 -25 c11 -14 51 -68 89 -121z m2116 107 c74 -32 81 -38 160
-139 l83 -105 -23 -51 -24 -51 -178 86 c-98 47 -181 88 -185 92 -5 6 79 202
87 202 1 0 37 -15 80 -34z m1524 6 l34 -28 -33 -57 c-17 -31 -34 -57 -36 -57
-3 0 -22 12 -44 26 l-39 26 30 59 c16 32 35 59 42 59 7 0 28 -13 46 -28z
m-3151 -127 c7 -75 11 -139 10 -141 -7 -6 -162 -23 -170 -18 -4 3 -8 23 -8 44
0 22 -11 74 -25 117 -33 105 -33 111 13 119 55 10 145 22 157 19 5 -1 16 -64
23 -140z m1117 98 c52 -26 94 -51 93 -54 -2 -4 -59 -122 -127 -262 l-124 -255
-106 -7 c-58 -3 -116 -7 -128 -8 -12 -1 -23 2 -25 7 -3 11 305 625 314 626 4
0 51 -21 103 -47z m1776 -10 c60 -31 109 -61 109 -67 0 -13 -58 -116 -66 -116
-4 0 -223 90 -232 96 -1 0 7 23 19 50 11 27 25 59 30 72 5 12 13 22 19 22 7 0
61 -26 121 -57z m-406 -12 c89 -38 110 -51 108 -67 -2 -10 3 -29 9 -41 8 -17
8 -29 0 -48 l-11 -24 -108 48 c-157 70 -164 74 -161 81 2 3 12 27 23 53 11 26
22 47 25 46 3 0 55 -22 115 -48z m-1999 -22 c32 -18 60 -33 62 -35 2 -1 -2
-21 -9 -43 -8 -28 -17 -40 -26 -37 -96 37 -183 81 -183 93 0 7 6 29 14 48 l15
34 34 -14 c19 -8 60 -28 93 -46z m3353 -65 c91 -69 167 -129 168 -132 3 -7
-156 -45 -268 -65 l-56 -10 -84 58 c-46 32 -86 60 -87 61 -7 5 145 214 155
214 3 0 80 -57 172 -126z m-4096 35 c18 -51 52 -278 43 -287 -3 -2 -30 31 -62
75 -32 43 -78 106 -103 140 -25 35 -46 68 -46 75 0 11 121 59 139 54 5 -1 18
-27 29 -57z m3506 36 c22 -13 42 -29 46 -35 8 -13 -52 -110 -69 -110 -9 0 -52
25 -93 55 -6 4 59 115 68 115 5 0 27 -11 48 -25z m-5117 -13 c5 -5 -11 -64
-34 -131 l-43 -123 -50 7 c-27 3 -51 8 -54 10 -4 5 21 65 75 178 36 77 38 79
68 73 17 -4 34 -10 38 -14z m3678 -9 c54 -23 61 -29 56 -49 -4 -15 -1 -26 10
-32 17 -9 16 -43 -1 -48 -5 -1 -26 17 -45 42 -19 24 -48 60 -64 79 -15 19 -26
35 -23 35 3 0 33 -12 67 -27z m420 2 c28 -14 50 -27 50 -30 0 -11 -45 -95 -51
-95 -19 0 -184 80 -183 89 1 6 2 17 3 25 1 14 59 33 109 35 12 1 45 -10 72
-24z m-3938 -46 c67 -23 125 -43 127 -45 5 -4 -31 -208 -39 -217 -5 -6 -297
47 -306 56 -3 3 72 223 82 238 7 12 -5 15 136 -32z m3026 6 c40 -19 72 -38 72
-42 -1 -14 -95 -211 -102 -215 -9 -4 -168 65 -168 74 0 18 105 218 114 218 7
0 44 -16 84 -35z m-1065 -47 c-3 -35 -8 -65 -10 -68 -5 -6 -207 -28 -213 -23
-2 2 -7 33 -10 69 l-5 64 30 5 c16 3 62 6 100 8 39 2 80 4 92 5 20 2 21 -1 16
-60z m656 46 c8 -8 -53 -124 -64 -124 -23 0 -35 26 -35 76 0 32 5 54 13 58 12
5 78 -2 86 -10z m1742 6 c24 -14 24 -26 0 -33 -21 -5 -41 9 -41 30 0 16 15 17
41 3z m412 -12 c18 -12 34 -23 36 -25 9 -6 -44 -102 -57 -103 -17 0 -82 27
-82 35 0 14 56 114 63 115 5 0 23 -10 40 -22z m-2546 -72 c4 -4 -38 -126 -43
-126 -3 0 -40 18 -83 40 -71 35 -79 42 -85 73 -4 19 -4 42 -1 51 3 9 7 23 10
31 3 11 24 6 102 -27 54 -22 99 -41 100 -42z m2879 38 c38 -26 73 -50 78 -55
9 -8 -52 -108 -67 -109 -4 0 -40 21 -80 47 -39 26 -74 48 -76 50 -6 3 60 113
69 113 4 0 39 -21 76 -46z m-1441 15 c34 -15 44 -24 36 -32 -13 -13 -102 20
-109 41 -6 18 19 15 73 -9z m498 -35 c70 -32 127 -63 127 -70 0 -11 -26 -76
-37 -93 -3 -5 -255 108 -267 120 -10 9 27 99 41 99 5 0 65 -25 136 -56z
m-1663 -3 c0 -41 4 -51 25 -65 27 -18 29 -24 15 -46 -8 -13 -15 -12 -54 8 -37
20 -45 30 -51 60 -3 21 -8 44 -11 54 -3 11 4 19 23 26 49 18 53 15 53 -37z
m2013 5 c141 -57 132 -47 97 -115 l-29 -59 -125 57 c-69 31 -128 59 -131 62
-11 12 17 69 35 69 10 0 23 7 30 15 7 9 18 14 24 11 6 -2 51 -20 99 -40z
m-2097 -42 c5 -38 12 -50 36 -63 74 -40 74 -40 39 -109 -17 -34 -33 -62 -35
-62 -3 0 -61 27 -129 61 l-125 60 20 60 c16 47 24 59 41 59 12 0 47 11 77 24
30 12 58 21 62 19 4 -2 10 -24 14 -49z m2503 0 c21 -20 -1 -40 -65 -61 -47
-15 -56 -15 -69 -2 -12 12 -10 21 16 67 l31 52 36 -21 c21 -12 43 -28 51 -35z
m-1672 -7 l81 -42 -46 -102 c-26 -56 -50 -104 -53 -108 -4 -3 -45 12 -93 34
l-86 40 41 88 c23 48 45 98 50 111 5 12 12 22 16 21 5 0 45 -19 90 -42z m389
20 c-13 -53 -68 -159 -77 -150 -6 6 0 31 17 69 14 32 30 69 35 82 11 29 33 29
25 -1z m220 -23 l74 -34 -41 -81 c-30 -60 -40 -91 -37 -116 2 -18 1 -33 -3
-33 -11 0 -259 121 -259 126 0 3 16 43 36 89 35 79 38 83 60 74 15 -5 24 -5
24 1 0 29 21 0 55 -75 21 -47 40 -83 43 -81 5 6 -7 41 -42 119 -31 68 -34 68
90 11z m-2718 -11 c100 -27 104 -27 134 -10 16 9 33 17 38 17 17 0 20 -34 5
-56 -8 -13 -27 -77 -42 -144 -20 -91 -30 -120 -40 -116 -7 3 -55 10 -106 16
-187 22 -257 32 -261 39 -2 3 19 56 48 116 29 61 58 125 66 143 10 27 17 32
34 28 12 -4 67 -19 124 -33z m-563 -77 c45 -84 46 -89 24 -83 -13 3 -68 16
-121 28 -92 22 -98 24 -98 48 0 21 13 34 68 68 37 23 70 39 73 35 3 -4 27 -47
54 -96z m4458 26 c37 -24 67 -49 67 -56 0 -24 -45 -53 -92 -59 -46 -6 -48 -5
-54 21 -3 15 -10 44 -16 66 -11 46 -3 90 15 79 7 -4 43 -28 80 -51z m257 8
c41 -27 74 -53 73 -57 -2 -8 -255 -54 -261 -48 -5 5 100 155 107 155 3 0 40
-23 81 -50z m-572 21 c20 -10 44 -27 53 -37 16 -18 45 -121 37 -129 -13 -13
-258 -32 -258 -19 0 18 107 204 118 204 7 0 29 -9 50 -19z m-2734 -43 c8 -29
22 -82 31 -118 9 -36 18 -73 21 -82 5 -18 -14 -21 -187 -33 l-86 -6 -12 132
c-7 72 -11 133 -9 134 3 3 159 21 200 24 24 1 28 -4 42 -51z m2442 6 c55 -25
109 -50 122 -55 l22 -9 -25 -50 c-14 -27 -27 -50 -28 -50 -8 0 -233 103 -240
109 -9 9 28 101 41 101 5 0 54 -21 108 -46z m-2317 -6 c36 -17 67 -32 68 -33
8 -5 -53 -165 -65 -170 -8 -3 -16 -4 -17 -3 -6 11 -61 238 -57 238 3 0 35 -14
71 -32z m1324 -9 c45 -23 84 -43 85 -44 2 -2 -2 -20 -9 -40 -11 -28 -23 -41
-52 -52 -26 -11 -42 -26 -52 -49 -11 -27 -20 -34 -42 -34 -34 0 -113 31 -113
45 0 12 91 215 97 215 2 0 40 -19 86 -41z m659 -21 l137 -61 -20 -39 c-11 -21
-25 -41 -32 -43 -7 -2 -76 -6 -154 -10 l-143 -6 -10 25 c-8 21 -2 40 32 111
22 47 43 85 47 85 3 0 67 -28 143 -62z m-2663 -60 c81 -112 81 -113 81 -175 0
-35 -4 -63 -10 -63 -13 0 -201 60 -221 71 -15 7 -14 20 11 128 23 102 41 151
56 151 1 0 39 -51 83 -112z m292 110 c3 -17 24 -238 22 -238 -2 0 -21 11 -42
25 -21 15 -60 28 -88 32 l-51 6 -6 45 c-3 24 -6 62 -6 83 l0 38 48 4 c71 5
122 7 123 5z m3207 -61 c8 -32 12 -61 8 -64 -12 -12 -101 -21 -108 -10 -10 16
-20 98 -13 105 11 11 69 31 85 29 8 -1 20 -25 28 -60z m-5063 -19 c116 -23
212 -43 214 -44 4 -3 -86 -121 -97 -127 -8 -5 -379 75 -384 83 -4 7 45 130 52
130 3 0 99 -19 215 -42z m3041 6 c46 -20 84 -38 84 -39 0 -1 -11 -28 -25 -59
l-25 -57 -78 42 c-42 23 -81 45 -85 49 -7 6 31 100 41 100 2 0 41 -16 88 -36z
m-575 -54 l120 -61 -36 -68 -36 -68 -97 -6 c-175 -12 -168 -13 -175 36 -5 36
-2 45 18 62 14 12 33 49 46 93 13 39 27 72 31 72 5 0 62 -27 129 -60z m3359
44 c0 -9 -51 -94 -61 -99 -9 -6 -83 37 -94 54 -5 9 47 28 120 44 32 7 35 7 35
1z m-2130 -14 c0 -6 -7 -24 -15 -40 -11 -22 -12 -36 -5 -55 6 -15 8 -31 4 -36
-3 -5 -32 -9 -65 -9 -52 0 -60 2 -57 17 2 10 21 27 43 40 22 12 47 37 57 57
18 34 38 48 38 26z m140 -62 l105 -52 -70 -7 c-145 -14 -164 -12 -175 17 -11
29 6 94 25 94 5 0 57 -24 115 -52z m613 13 c31 -14 57 -28 57 -31 0 -4 -36 -8
-80 -9 l-80 -2 17 36 c9 19 20 34 23 33 3 -2 31 -14 63 -27z m1202 9 c4 -6 -4
-29 -18 -53 -65 -113 -120 -197 -128 -197 -6 0 -24 7 -40 16 l-30 15 24 42
c13 23 41 72 61 109 25 45 44 68 59 71 42 8 66 7 72 -3z m-2354 -51 c63 -27
118 -54 122 -58 4 -4 -60 -14 -143 -20 -83 -7 -154 -11 -156 -8 -4 4 56 137
62 137 1 0 53 -23 115 -51z m-231 -59 c0 -4 -6 -14 -12 -23 -10 -13 -36 -18
-121 -24 l-108 -6 37 75 37 75 83 -46 c46 -25 84 -48 84 -51z m2460 95 c0 -3
-23 -48 -52 -100 l-51 -95 -51 30 c-28 17 -81 47 -118 67 -37 20 -65 39 -62
42 3 4 74 18 157 32 176 31 177 31 177 24z m193 -31 l38 -25 -20 -32 c-11 -18
-44 -73 -73 -124 l-54 -91 -39 24 c-22 13 -40 27 -40 31 0 11 139 242 145 243
3 0 22 -12 43 -26z m-5993 -31 c-46 -146 -53 -163 -66 -163 -18 0 -15 13 28
118 29 69 56 102 38 45z m124 -3 c7 -7 -29 -197 -40 -209 -7 -7 -114 33 -114
43 0 5 12 49 27 98 l27 90 45 -7 c25 -4 50 -10 55 -15z m1987 -17 c32 -24 49
-45 49 -59 0 -12 3 -36 7 -54 l6 -33 -94 7 c-51 4 -94 8 -95 9 -1 1 -4 39 -7
85 l-6 82 46 0 c37 0 55 -7 94 -37z m-1838 -13 c69 -16 97 -26 94 -35 -6 -15
-157 -205 -163 -205 -3 0 -27 11 -55 25 -37 19 -49 30 -45 43 3 9 15 58 26
109 14 59 26 90 33 88 7 -2 56 -13 110 -25z m5037 -6 c8 -21 6 -33 -11 -60
-11 -19 -23 -34 -25 -34 -2 0 -4 27 -4 60 0 47 3 60 15 60 9 0 20 -12 25 -26z
m-100 -25 c-12 -22 -24 -39 -28 -37 -62 30 -102 53 -102 59 0 7 30 11 123 17
l27 2 -20 -41z m36 -66 c-2 -2 -13 0 -24 6 -20 11 -20 11 1 51 l22 40 3 -46
c2 -26 1 -48 -2 -51z m-2782 46 c4 -23 4 -44 1 -47 -10 -10 -159 -31 -222 -31
l-63 -1 0 55 0 54 88 4 c48 1 110 4 138 5 l51 2 7 -41z m2592 -11 c52 -29 94
-57 94 -62 0 -14 -114 -206 -122 -206 -7 0 -220 99 -227 106 -7 6 89 188 107
202 27 20 50 14 148 -40z m-178 34 c-16 -39 -94 -182 -99 -182 -11 0 -239 109
-239 114 0 3 5 17 12 31 13 29 27 34 123 38 155 7 207 7 203 -1z m-339 -34
c-6 -13 -13 -24 -14 -26 -4 -4 -85 37 -85 43 0 3 25 5 55 5 55 0 55 0 44 -22z
m-3162 -8 c247 -30 253 -31 253 -50 0 -29 -32 -160 -39 -160 -3 1 -80 18 -171
38 l-165 38 -3 63 c-3 74 2 95 23 87 8 -3 54 -10 102 -16z m2909 -88 c18 -55
38 -111 44 -122 11 -20 10 -20 -22 -7 -18 8 -58 24 -88 37 -30 13 -59 27 -64
31 -13 11 45 157 64 162 28 8 32 2 66 -101z m167 82 c29 -15 54 -28 56 -30 4
-4 -66 -143 -79 -157 -8 -9 -62 122 -74 181 -7 30 -6 32 19 32 14 0 49 -12 78
-26z m-295 -58 l-30 -74 -46 19 c-152 65 -159 70 -124 102 16 15 57 21 179 25
l52 2 -31 -74z m1191 -14 c1 -9 -6 -9 -29 3 -35 18 -36 22 -13 55 l17 24 12
-35 c7 -19 13 -40 13 -47z m-1437 38 c-18 -17 -39 -30 -47 -30 -8 0 -32 -35
-56 -82 -49 -98 -44 -92 -63 -85 -13 5 -9 21 24 92 22 47 37 92 33 101 -9 24
15 34 82 34 l60 -1 -33 -29z m-129 -2 c4 -13 -7 -50 -29 -97 -33 -71 -35 -74
-52 -58 -12 13 -19 40 -22 92 -6 82 -6 82 61 84 30 1 38 -3 42 -21z m-123 -59
c0 -60 4 -75 26 -104 21 -28 23 -37 14 -54 -7 -15 -17 -20 -33 -16 -12 3 -103
19 -202 36 -99 17 -182 33 -185 35 -2 3 12 38 32 78 l36 73 124 10 c68 5 138
11 156 11 l32 2 0 -71z m-1895 21 c48 -16 90 -32 92 -34 3 -3 -60 -119 -73
-135 -2 -2 -40 4 -84 14 -88 20 -90 22 -71 95 5 19 12 47 15 63 4 15 12 27 19
27 7 0 53 -13 102 -30z m2894 -25 l111 -55 -45 -90 c-25 -49 -51 -90 -57 -90
-7 0 -57 15 -111 33 -132 43 -135 49 -77 167 24 50 49 90 56 90 6 0 61 -25
123 -55z m-1379 41 c0 -15 -102 -216 -109 -216 -6 0 -48 9 -93 19 -135 32
-218 36 -272 16 -25 -10 -52 -15 -61 -12 -20 8 -20 88 0 127 17 32 0 29 315
54 217 17 220 17 220 12z m1983 -43 c45 -25 83 -47 85 -48 4 -3 -108 -194
-118 -200 -8 -5 -180 76 -180 85 0 10 120 210 126 210 3 0 42 -21 87 -47z
m-1238 -4 c77 -34 94 -45 90 -59 -3 -10 -21 -55 -39 -101 l-34 -84 -112 -3
c-132 -3 -150 5 -150 70 0 50 72 195 103 208 34 14 40 13 142 -31z m-1285 4
c0 -5 -7 -16 -15 -27 -14 -18 -16 -18 -87 0 l-73 19 40 6 c59 9 135 10 135 2z
m-826 -35 c17 -78 27 -140 24 -143 -2 -2 -34 3 -71 11 l-67 16 31 56 c18 32
37 63 42 70 15 19 36 14 41 -10z m530 -23 l-15 -37 -57 6 c-31 3 -91 8 -132
11 l-75 6 -42 -40 c-29 -28 -43 -50 -45 -73 -2 -21 -9 -34 -20 -36 -17 -3 -27
31 -43 139 l-7 46 139 -4 c86 -2 170 1 223 9 47 8 86 13 88 12 1 0 -5 -18 -14
-39z m148 25 c24 -6 60 -16 81 -21 34 -9 37 -13 37 -44 0 -24 -5 -35 -15 -35
-19 0 -199 31 -203 35 -2 1 5 21 14 44 10 27 21 40 30 37 7 -3 32 -10 56 -16z
m1661 -72 c53 -22 97 -44 97 -48 0 -4 -23 -11 -52 -14 -31 -4 -74 -20 -107
-41 -53 -32 -137 -56 -130 -37 2 4 19 47 38 95 19 48 39 87 45 87 6 0 55 -19
109 -42z m-1838 -10 c4 -4 4 -15 1 -26 -5 -16 -19 -22 -59 -27 -56 -7 -207
-33 -244 -42 -19 -4 -23 -1 -23 20 0 17 14 37 44 64 l44 39 115 -11 c64 -6
119 -14 122 -17z m538 -34 c26 -3 47 -9 47 -13 0 -5 -41 -71 -56 -89 -1 -2
-40 15 -85 39 l-82 43 39 17 c21 10 50 16 64 14 14 -2 46 -7 73 -11z m179 -35
l38 -10 -14 -34 c-28 -65 -23 -63 -113 -46 l-83 16 32 48 c34 53 36 53 140 26z"/>
</g>
</svg>
