<?xml version="1.0" standalone="no"?>
<!DOCTYPE svg PUBLIC "-//W3C//DTD SVG 20010904//EN"
 "http://www.w3.org/TR/2001/REC-SVG-20010904/DTD/svg10.dtd">
<svg version="1.0" xmlns="http://www.w3.org/2000/svg"
 width="512.000000pt" height="512.000000pt" viewBox="0 0 512.000000 512.000000"
 preserveAspectRatio="xMidYMid meet">

<g transform="translate(0.000000,512.000000) scale(0.100000,-0.100000)"
fill="white" stroke="none">
<path d="M2364 4150 c-103 -21 -177 -78 -221 -168 -22 -47 -27 -71 -27 -132 0
-74 2 -80 207 -593 114 -285 207 -532 207 -549 0 -68 -25 -91 -473 -428 l-431
-325 -70 -7 c-60 -5 -89 -16 -205 -76 -181 -93 -322 -138 -496 -157 -69 -8
-90 -20 -105 -59 -13 -35 4 -74 42 -95 23 -13 39 -13 157 7 166 27 315 77 461
153 181 95 227 92 388 -28 166 -124 278 -163 409 -144 99 15 179 53 268 126
39 32 99 72 135 89 60 29 73 31 170 31 98 0 110 -2 174 -33 38 -18 101 -57
140 -87 133 -101 274 -146 398 -125 99 17 208 74 303 159 159 142 197 144 348
18 149 -124 278 -170 480 -171 l129 -1 24 28 c26 30 31 72 11 98 -23 31 -52
38 -128 32 -149 -10 -307 46 -429 153 -66 58 -139 99 -197 110 -24 4 -38 18
-62 56 -17 27 -31 50 -31 52 0 1 28 -1 63 -5 65 -8 187 3 247 22 185 59 339
220 396 414 23 80 23 230 0 310 -55 187 -200 342 -379 405 -86 30 -238 38
-331 16 -207 -49 -387 -225 -439 -430 l-13 -48 -207 312 c-114 171 -207 320
-207 330 0 9 6 22 13 28 9 8 146 12 412 14 l400 3 55 29 c142 74 221 232 190
382 -25 121 -107 221 -218 266 l-57 23 -730 2 c-401 1 -748 -3 -771 -7z m1529
-178 c119 -75 119 -259 0 -334 -38 -23 -40 -23 -448 -28 -408 -5 -410 -5 -448
-28 -56 -35 -87 -95 -87 -169 0 -70 -38 -9 588 -952 l341 -514 -47 -35 c-26
-20 -73 -60 -104 -89 -32 -30 -87 -68 -125 -86 -126 -59 -235 -38 -382 74 -83
63 -170 107 -256 129 -189 48 -352 8 -535 -132 -105 -80 -138 -98 -200 -105
-62 -7 -168 24 -231 69 -96 68 -149 110 -148 116 0 4 176 138 391 297 468 347
481 361 482 520 l0 80 -207 518 c-114 285 -207 528 -207 540 0 38 43 110 79
135 l35 22 735 -2 736 -3 38 -23z m369 -914 c322 -160 322 -616 0 -775 -66
-33 -85 -38 -167 -41 -114 -5 -178 12 -265 70 -81 53 -143 138 -171 230 -31
101 -24 221 19 312 36 76 116 162 183 197 80 41 119 49 225 46 94 -2 106 -5
176 -39z"/>
<path d="M972 3557 c-27 -29 -28 -77 -3 -108 l19 -24 342 -3 c374 -3 379 -2
401 55 12 32 -4 79 -32 93 -10 6 -161 10 -362 10 l-344 0 -21 -23z"/>
<path d="M666 3248 c-37 -34 -39 -85 -4 -118 21 -19 33 -20 365 -20 l344 0 24
25 c40 39 32 96 -16 120 -23 12 -88 15 -358 15 -328 0 -330 0 -355 -22z"/>
<path d="M1623 3260 c-47 -19 -58 -92 -20 -128 22 -21 33 -22 183 -22 155 0
161 1 182 23 27 29 28 77 3 108 -18 23 -25 24 -173 26 -84 1 -163 -2 -175 -7z"/>
<path d="M341 2924 c-28 -35 -26 -67 3 -101 l24 -28 587 0 587 0 24 28 c29 34
31 66 3 101 l-20 26 -594 0 -594 0 -20 -26z"/>
<path d="M3564 1391 c-55 -14 -127 -60 -208 -133 -44 -39 -107 -83 -140 -99
-130 -62 -200 -50 -361 59 -186 127 -277 162 -425 162 -135 0 -267 -52 -395
-156 -117 -95 -192 -118 -291 -89 -81 23 -118 44 -198 110 -110 89 -196 125
-307 125 -76 0 -131 -18 -235 -78 -136 -78 -298 -129 -474 -151 -97 -13 -130
-34 -130 -86 0 -34 30 -74 58 -76 79 -7 257 26 394 72 87 29 178 70 292 132
37 20 63 27 105 27 71 0 114 -21 216 -100 131 -102 226 -140 349 -140 127 0
209 32 322 126 38 31 98 70 133 87 132 63 294 44 423 -48 137 -98 182 -125
242 -145 190 -63 352 -18 541 150 142 127 187 127 327 4 78 -68 218 -139 316
-159 40 -8 121 -15 178 -15 104 0 106 0 136 30 25 26 29 36 24 63 -11 55 -35
67 -145 67 -180 0 -303 45 -431 157 -36 31 -89 67 -118 81 -57 26 -147 36
-198 23z"/>
</g>
</svg>
